<?xml version="1.0" encoding="UTF-8"?>
<svg width="125px" height="63px" viewBox="0 0 125 63" version="1.1" xmlns="http://www.w3.org/2000/svg" xmlns:xlink="http://www.w3.org/1999/xlink">
    <!-- Generator: Sketch 52.6 (67491) - http://www.bohemiancoding.com/sketch -->
    <title>Cannon</title>
    <desc>Created with Sketch.</desc>
    <g id="MAIN" stroke="none" stroke-width="1" fill="none" fill-rule="evenodd">
        <g id="HOMEPAGE-TEMPLATE---FULL" transform="translate(-659.000000, -1685.000000)" fill="#FFFFFF">
            <g id="SUBFOOTER" transform="translate(-1.000000, 1445.000000)">
                <g id="Cannon" transform="translate(660.000000, 240.000000)">
                    <g>
                        <path d="M64.4859813,0.933333333 C53.1542056,0.933333333 43.3411215,7 38.0841121,16.1 L26.8691589,16.1 L26.8691589,25.4333333 L34.4626168,25.4333333 L39.2523364,25.4333333 L62.5,25.4333333 L67.7570093,25.4333333 L89.2523364,25.4333333 L94.6261682,25.4333333 L124.182243,25.4333333 L124.182243,16.1 L91.0046729,16.1 C85.6308411,7 75.817757,0.933333333 64.4859813,0.933333333 Z M75.4672897,8.4 L67.8738318,15.9833333 L67.7570093,15.9833333 L67.7570093,6.06666667 C70.4439252,6.41666667 73.1308411,7.23333333 75.4672897,8.4 Z M62.5,16.1 L54.2056075,7.93333333 C56.7757009,6.88333333 59.5794393,6.18333333 62.5,5.95 L62.5,16.1 Z M49.4158879,10.5 L54.9065421,15.9833333 L43.6915888,15.9833333 C45.3271028,13.8833333 47.3130841,12.0166667 49.4158879,10.5 Z M75.2336449,16.1 L80.0233645,11.3166667 C81.7757009,12.7166667 83.411215,14.35 84.6962617,16.1 L75.2336449,16.1 Z" id="Shape" fill-rule="nonzero"></path>
                        <path d="M95.2102804,31.5 C95.2102804,30.9166667 95.2102804,30.3333333 95.2102804,29.75 L89.953271,29.75 C89.953271,29.75 89.953271,29.75 89.953271,29.75 L38.6682243,29.75 C38.6682243,29.75 38.6682243,29.75 38.6682243,29.75 L33.9953271,29.75 C33.9953271,30.3333333 33.9953271,30.9166667 33.9953271,31.5 C33.9953271,35.5833333 34.8130841,39.4333333 36.2149533,43.05 L29.7897196,46.7833333 C29.7897196,46.7833333 28.1542056,48.0666667 26.5186916,48.7666667 C23.9485981,49.9333333 23.5981308,49.8166667 23.5981308,49.8166667 L0.23364486,49.8166667 L0.23364486,58.6833333 L23.5981308,58.6833333 L25.9345794,58.45 C26.9859813,58.3333333 27.6869159,57.9833333 28.6214953,57.5166667 C30.2570093,56.7 34.228972,54.4833333 34.228972,54.3666667 L40.771028,50.6333333 C46.3785047,57.6333333 55.0233645,62.0666667 64.7196262,62.0666667 C81.4252336,62.0666667 95.2102804,48.4166667 95.2102804,31.5 Z M62.5,40.95 L62.5,57.05 C59.5794393,56.8166667 56.7757009,56.1166667 54.2056075,55.0666667 L62.5,40.95 Z M67.7570093,40.8333333 L75.817757,54.4833333 C73.364486,55.7666667 70.6775701,56.5833333 67.7570093,56.9333333 L67.7570093,40.8333333 Z M80.2570093,51.5666667 L72.546729,38.5 L85.3971963,46.0833333 C83.9953271,48.1833333 82.2429907,50.05 80.2570093,51.5666667 Z M76.8691589,35 L89.7196262,35 C89.3691589,37.2166667 88.7850467,39.4333333 87.9672897,41.5333333 L76.8691589,35 Z M38.7850467,35 L49.8831776,35 L40.1869159,40.6 C39.6028037,38.85 39.0186916,36.9833333 38.7850467,35 Z M44.7429907,48.3 L55.9579439,41.7666667 L49.5327103,52.6166667 C47.7803738,51.3333333 46.1448598,49.8166667 44.7429907,48.3 Z" id="Shape" fill-rule="nonzero"></path>
                        <ellipse id="Oval" fill-rule="nonzero" cx="22.1962617" cy="20.7666667" rx="1.86915888" ry="1.86666667"></ellipse>
                    </g>
                </g>
            </g>
        </g>
    </g>
</svg>