<?xml version="1.0" encoding="UTF-8"?>
<svg width="61px" height="24px" viewBox="0 0 61 24" version="1.1" xmlns="http://www.w3.org/2000/svg" xmlns:xlink="http://www.w3.org/1999/xlink">

        <path d="M60.5052993,10.2857143 C60.8212258,9.09124424 61.1963885,12.5861751 60.880462,13.7142857 C60.5842809,14.7317972 60.2091181,15.837788 59.7944646,17.0543779 C59.379811,18.2488479 58.9256666,19.3769585 58.412286,20.39447 C57.9186508,21.4119816 57.346034,22.2746544 56.714181,22.9603687 C56.0823279,23.6460829 55.3912386,24 54.6409131,24 L54.2657504,24 L54.2262596,24 L53.9300785,24 C52.9625535,24 52.1529917,23.6460829 51.4619025,22.9382488 C50.7905586,22.2304147 50.1981964,21.3456221 49.744052,20.283871 C49.2701622,19.2 48.8949995,18.0497696 48.5790729,16.7889401 C48.2828918,15.5281106 48.0262015,14.3557604 47.809002,13.2940092 C47.5918025,12.2322581 47.4140939,11.3474654 47.2363852,10.6396313 C47.0586765,9.93179724 46.9007133,9.57788018 46.7230046,9.57788018 C46.5452959,9.57788018 46.3873327,9.82119816 46.209624,10.3520737 C46.1701332,10.440553 46.1503878,10.5069124 46.1306424,10.5953917 C46.1108969,10.6175115 46.1108969,10.6175115 46.1108969,10.6396313 C46.0714061,10.8165899 46.0121699,10.9935484 45.9529337,11.1483871 C45.6962434,11.8341014 45.4395531,12.6967742 45.1236266,13.7142857 C44.8274454,14.7317972 44.4522827,15.837788 44.0376291,17.0543779 C43.6229756,18.2488479 43.1688312,19.3769585 42.6554506,20.39447 C42.1618154,21.4119816 41.5891986,22.2746544 40.9573455,22.9603687 C40.3254925,23.6460829 39.6344032,24 38.8840777,24 L38.5089149,24 L38.4694241,24 L38.173243,24 C37.205718,24 36.3961563,23.6460829 35.705067,22.9382488 C35.0337231,22.2304147 34.4413609,21.3456221 33.9872165,20.283871 C33.5133267,19.2 33.138164,18.0497696 32.8222375,16.7889401 C32.5260564,15.5281106 32.2693661,14.3557604 32.0521666,13.2940092 C31.8349671,12.2322581 31.6572584,11.3474654 31.4795497,10.6396313 C31.3018411,9.93179724 31.1438778,9.57788018 30.9661691,9.57788018 C30.7687151,9.57788018 30.571261,9.93179724 30.3738069,10.6396313 C30.1763528,11.3474654 29.9394079,12.2322581 29.6827176,13.2940092 C29.4062819,14.3778802 29.0903554,15.5281106 28.7151926,16.7889401 C28.4979932,17.4967742 28.2413029,18.1824885 27.9846126,18.8239631 C27.8069039,19.3548387 27.6094498,19.8635945 27.3725049,20.3281106 C26.8788697,21.3456221 26.3062529,22.2082949 25.6743998,22.8940092 C25.0425468,23.5797235 24.3514575,23.9336406 23.601132,23.9336406 L23.2259693,23.9336406 L23.1864784,23.9336406 L22.8902973,23.9336406 C21.9227723,23.9336406 21.1132106,23.5797235 20.4221213,22.8718894 C19.7507775,22.1640553 19.1584152,21.2792627 18.7042709,20.2175115 C18.2303811,19.1336406 17.8552183,17.9834101 17.5392918,16.7225806 C17.2431107,15.4617512 16.9864204,14.2894009 16.7692209,13.2276498 C16.5520214,12.1658986 16.3743127,11.281106 16.1966041,10.5732719 C16.0188954,9.86543779 15.8609321,9.51152074 15.6832235,9.51152074 C15.4857694,9.51152074 15.2883153,9.86543779 15.0908612,10.5732719 C14.8934072,11.281106 14.6564623,12.1658986 14.399772,13.2276498 C14.1233362,14.3115207 13.8074097,15.4617512 13.432247,16.7225806 C13.0570842,17.9834101 12.6029398,19.1557604 12.0698138,20.2175115 C11.5366878,21.2792627 10.9048348,22.1640553 10.1742547,22.8718894 C9.44367459,23.5797235 8.59462205,23.9336406 7.60735166,23.9336406 C6.81753535,23.9336406 6.10670067,23.7124424 5.47484761,23.3142857 C4.84299456,22.8940092 4.29012314,22.3410138 3.77674254,21.6552995 C3.26336194,20.9695853 2.82896296,20.1953917 2.47354562,19.3327189 C2.11812828,18.4700461 1.78245635,17.5852535 1.50602064,16.678341 C0.874167588,14.5548387 0.4002778,12.121659 0.0843512743,9.37880184 C-0.0736119885,7.65345622 -0.0143757649,6.10506912 0.30155076,4.71152074 C0.439768615,4.11428571 0.637222694,3.53917051 0.893912996,2.9640553 C1.1506033,2.41105991 1.48627523,1.90230415 1.94041961,1.45990783 C2.39456399,1.01751152 2.92769,0.66359447 3.55954305,0.398156682 C4.1913961,0.132718894 4.96146701,0 5.85001036,0 C7.05448024,0 7.82455115,0.376036866 8.16022308,1.1281106 C8.49589501,1.88018433 8.57487665,2.83133641 8.39716797,4.00368664 C8.1997139,5.17603687 7.82455115,6.45898618 7.25193432,7.87465438 C6.91626239,8.69308756 6.56084505,9.51152074 6.2054277,10.2857143 C6.63982668,11.3253456 7.11371646,12.2986175 7.60735166,13.2276498 C8.25895012,14.4221198 8.87105776,15.4396313 9.46342,16.2580645 C10.0557822,17.0764977 10.5099266,17.4746544 10.8455985,17.4746544 C11.1812705,17.4746544 11.5169424,17.0322581 11.8723598,16.1695853 C12.2080317,15.3069124 12.5831944,14.2230415 12.9781026,12.9400922 C13.3730107,11.635023 13.7876643,10.2414747 14.2023179,8.73732719 C14.6169714,7.21105991 15.0513704,5.81751152 15.5055148,4.53456221 C15.9399138,3.2516129 16.4138036,2.16774194 16.9074388,1.30506912 C17.4010739,0.442396313 17.9144546,0 18.4475806,0 L18.4870714,0 C18.5463076,0 18.6055438,0 18.6647801,0.0221198157 C18.7240163,0.0442396313 18.7832525,0.0442396313 18.8424887,0.0442396313 C19.4151055,0.199078341 19.9284862,0.685714286 20.3826305,1.50414747 C20.8367749,2.32258065 21.2711739,3.29585253 21.666082,4.44608295 C22.0412448,5.59631336 22.4164075,6.81290323 22.7520795,8.14009217 C23.0877514,9.46728111 23.4234233,10.7502304 23.7590953,11.9668203 C24.2132397,13.4930876 24.6476386,14.7539171 25.0820376,15.8156682 C25.5164366,16.8552995 25.970581,17.4082949 26.4444707,17.4304147 L26.5431978,17.4304147 C26.9578513,17.4082949 27.0763238,17.0101382 27.3132687,16.3907834 C27.3132687,16.3686636 27.3132687,16.3686636 27.3132687,16.3686636 C27.8463947,14.9087558 28.103085,13.5815668 28.2807937,12.9843318 C28.6757018,11.6792627 29.0903554,10.2857143 29.505009,8.78156682 C29.9196625,7.25529954 30.3540615,5.86175115 30.8082059,4.57880184 C31.2426048,3.29585253 31.7164946,2.21198157 32.2101298,1.34930876 C32.703765,0.486635945 33.2171456,0.0442396313 33.7502716,0.0442396313 L33.7305262,0.0442396313 C33.7897625,0.0442396313 33.8489987,0.0442396313 33.9082349,0.066359447 C33.9674711,0.0884792627 34.0267073,0.0884792627 34.0859436,0.0884792627 C34.6585604,0.243317972 35.171941,0.729953917 35.6260854,1.5483871 C36.0802298,2.36682028 36.5146287,3.34009217 36.9095369,4.49032258 C37.2846996,5.640553 37.6598624,6.85714286 37.9955343,8.1843318 C38.3312063,9.51152074 38.6668782,10.79447 39.0025501,12.0110599 C39.4566945,13.5373272 39.8910935,14.7981567 40.3254925,15.8599078 C40.7598914,16.8995392 41.2140358,17.4525346 41.6879256,17.4746544 L41.7669072,17.4746544 C42.0630883,17.4082949 42.339524,17.0764977 42.6357052,16.5013825 C42.9318863,15.9262673 43.208322,15.2847926 43.4650123,14.5990783 C43.7809388,13.8248848 44.0573745,12.9400922 44.3140648,11.9668203 L44.7287184,10.3078341 C45.0446449,9.11336406 45.3605714,7.89677419 45.676498,6.68018433 C45.9924245,5.46359447 46.3478418,4.35760369 46.7032592,3.36221198 C47.0784219,2.36682028 47.4733301,1.57050691 47.9077291,0.951152074 C48.3223826,0.376036866 48.776527,0.066359447 49.2504168,0.0442396313 C49.3293984,0.0221198157 49.3886346,0.0221198157 49.4676163,0.0221198157 L49.5071071,0.0221198157 C49.5663433,0.0221198157 49.6255795,0.0221198157 49.6848158,0.0442396313 C49.744052,0.066359447 49.8032882,0.066359447 49.8625244,0.066359447 C50.4351413,0.221198157 50.9485219,0.707834101 51.4026662,1.52626728 C51.8568106,2.34470046 52.2912096,3.31797235 52.6861178,4.46820276 C53.0612805,5.61843318 53.4364433,6.83502304 53.7721152,8.16221198 C54.1077871,9.48940092 54.4434591,10.7723502 54.779131,11.9889401 C55.2332754,13.5152074 55.6676743,14.7760369 56.1020733,15.837788 C56.5364723,16.8774194 56.9906167,17.4304147 57.4645065,17.4525346 L57.5434881,17.4525346 C57.8396692,17.3861751 58.1161049,17.0543779 58.412286,16.4792627 C58.7084671,15.9041475 58.9849029,15.2626728 59.2415932,14.5769585 C59.5575197,13.802765 59.8339554,12.9179724 60.0906457,11.9447005 L60.5052993,10.2857143 Z M4.21910002,2.10138249 C4.08088217,2.91981567 4.14011839,3.93732719 4.39680869,5.17603687 C4.65349899,6.30414747 5.04840715,7.54285714 5.56178775,8.84792627 C5.77898724,8.36129032 5.97644132,7.87465438 6.1738954,7.38801843 C6.62803978,6.2156682 6.96371171,5.13179724 7.14142038,4.18064516 C7.31912905,3.20737327 7.31912905,2.43317972 7.10192956,1.81382488 C6.88473008,1.19447005 6.39109488,0.884792627 5.60127857,0.884792627 C4.83120766,0.884792627 4.35731787,1.28294931 4.21910002,2.10138249 Z"></path>
</svg>