<?xml version="1.0" encoding="UTF-8" standalone="no"?>
<!-- Created with Inkscape (http://www.inkscape.org/) -->

<svg
   xmlns:dc="http://purl.org/dc/elements/1.1/"
   xmlns:cc="http://creativecommons.org/ns#"
   xmlns:rdf="http://www.w3.org/1999/02/22-rdf-syntax-ns#"
   xmlns:svg="http://www.w3.org/2000/svg"
   xmlns="http://www.w3.org/2000/svg"
   xmlns:sodipodi="http://sodipodi.sourceforge.net/DTD/sodipodi-0.dtd"
   xmlns:inkscape="http://www.inkscape.org/namespaces/inkscape"
   width="365.75037"
   height="135.28629"
   id="svg2"
   version="1.1"
   inkscape:version="0.48.2 r9819"
   sodipodi:docname="New document 1">
  <defs
     id="defs4">
    <clipPath
       id="clipPath3009"
       clipPathUnits="userSpaceOnUse">
      <path
         inkscape:connector-curvature="0"
         id="path3011"
         d="M 0,0 612,0 612,738 0,738 0,0 z" />
    </clipPath>
  </defs>
  <sodipodi:namedview
     id="base"
     pagecolor="#ffffff"
     bordercolor="#666666"
     borderopacity="1.0"
     inkscape:pageopacity="0.0"
     inkscape:pageshadow="2"
     inkscape:zoom="0.94316065"
     inkscape:cx="249.30376"
     inkscape:cy="102.87841"
     inkscape:document-units="px"
     inkscape:current-layer="layer1"
     showgrid="false"
     fit-margin-top="0"
     fit-margin-left="0"
     fit-margin-right="0"
     fit-margin-bottom="0"
     inkscape:window-width="475"
     inkscape:window-height="458"
     inkscape:window-x="110"
     inkscape:window-y="110"
     inkscape:window-maximized="0" />
  <metadata
     id="metadata7">
    <rdf:RDF>
      <cc:Work
         rdf:about="">
        <dc:format>image/svg+xml</dc:format>
        <dc:type
           rdf:resource="http://purl.org/dc/dcmitype/StillImage" />
        <dc:title></dc:title>
      </cc:Work>
    </rdf:RDF>
  </metadata>
  <g
     inkscape:label="Layer 1"
     inkscape:groupmode="layer"
     id="layer1"
     transform="translate(-125.69624,-415.13311)">
    <g
       transform="matrix(4.209543,0,0,-4.209543,-398.13887,2229.8309)"
       clip-path="url(#clipPath3009)"
       id="g3007"
       style="fill:#000000">
      <g
         transform="translate(131.0229,423.1064)"
         id="g3013"
         style="fill:#000000">
        <path
           id="path3015"
           style="fill:#000000;fill-opacity:1;fill-rule:nonzero;stroke:none"
           d="m 0,0 3.226,-16.196 6.675,0 1.797,6.206 1.865,-6.206 6.573,0 1.323,6.502 c 1.15,-6.868 8.083,-7.132 10.088,-7.132 2.005,0 5.258,0.494 8.084,2.17 l 0,-1.54 11.534,0 c 3.286,0 4.272,1.046 4.994,2.558 l 0,-2.558 6.934,0 0,5.713 3.287,0 0,-5.713 6.77,0 0,16.176 -6.77,0 0,-5.796 -3.253,0 0,5.796 -6.968,0 0,-3.004 c -0.656,1.939 -1.938,3.004 -5.257,3.004 l -11.239,0 0,-2.379 c -0.952,1.117 -3.318,2.892 -8.412,2.892 -5.094,0 -6.901,-1.249 -8.774,-3.878 l 0.615,3.365 -5.455,0 -1.469,-5.895 -1.38,5.882 -5.915,0 L 7.361,-6.014 6.014,0 0,0 z m 7.162,7.305 6.025,0 0.637,-2.967 3.088,3.023 5.521,0 0.723,-3.056 3.056,3.056 5.718,0 -0.624,-2.564 c 2.399,2.005 4.305,3.188 8.314,3.188 4.008,0 5.849,-1.216 7.427,-2.859 l 2.267,2.202 8.971,0 c 2.597,0 3.384,-1.841 3.384,-3.22 l 3.32,3.22 6.177,0 0,-3.089 3.089,3.066 6.048,0 0,-16.604 -14.641,-14.386 -6.812,0 -0.006,3.114 -3.221,-3.114 -6.77,0 0,2.852 c -1.905,-2.597 -3.614,-2.852 -5.849,-2.852 l -10.351,0 0,1.964 c -0.887,-0.691 -4.338,-2.432 -9.003,-2.432 -4.667,0 -7.231,1.445 -8.479,3.385 l -3.114,-2.917 -5.613,0 -0.77,2.917 -3.024,-2.958 -5.782,0 -3.451,17.482 13.745,13.549 z"
           inkscape:connector-curvature="0" />
      </g>
      <g
         transform="translate(164.6726,418.1113)"
         id="g3017"
         style="fill:#000000">
        <path
           id="path3019"
           style="fill:#000000;fill-opacity:1;fill-rule:nonzero;stroke:none"
           d="m 0,0 6.014,0 0,-1.775 -8.183,0 0,-3.187 2.071,0 0,-1.774 c 0,-0.92 -0.526,-1.545 -2.005,-1.545 -1.478,0 -2.005,1.117 -2.005,1.643 0,0.526 0.034,6.047 0.034,6.704 0,0.657 0.493,1.709 2.037,1.709 C -0.493,1.775 0,0.953 0,0"
           inkscape:connector-curvature="0" />
      </g>
      <g
         transform="translate(177.0616,419.5572)"
         id="g3021"
         style="fill:#000000">
        <path
           id="path3023"
           style="fill:#000000;fill-opacity:1;fill-rule:nonzero;stroke:none"
           d="m 0,0 0,-2.694 c 0,0 1.348,-0.034 2.169,-0.034 0.821,0 1.479,0.494 1.479,1.348 C 3.648,-0.525 3.089,0 2.169,0 L 0,0 z"
           inkscape:connector-curvature="0" />
      </g>
      <g
         transform="translate(177.0616,413.0843)"
         id="g3025"
         style="fill:#000000">
        <path
           id="path3027"
           style="fill:#000000;fill-opacity:1;fill-rule:nonzero;stroke:none"
           d="m 0,0 0,-2.728 c 0,0 1.445,-0.033 2.268,-0.033 0.821,0 1.478,0.493 1.478,1.348 C 3.746,-0.56 3.188,0 2.268,0 L 0,0 z"
           inkscape:connector-curvature="0" />
      </g>
      <g
         transform="translate(187.1823,416.9614)"
         id="g3029"
         style="fill:#000000">
        <path
           id="path3031"
           style="fill:#000000;fill-opacity:1;fill-rule:nonzero;stroke:none"
           d="m 0,0 0,-4.338 c -0.559,1.742 -1.807,2.037 -2.661,2.334 C -1.84,-1.873 -0.492,-1.151 0,0"
           inkscape:connector-curvature="0" />
      </g>
    </g>
  </g>
</svg>
