<?xml version="1.0" encoding="UTF-8"?>
<svg class="logo" width="325px" height="109px" viewBox="0 0 325 109" version="1.1" xmlns="http://www.w3.org/2000/svg" xmlns:xlink="http://www.w3.org/1999/xlink">
<style>
        .logo__main-path { fill: #E5E4E3; }
        .logo__accent-path { fill: #CC2954; }
    </style>
  
  
  <g id="logo-container" class="logo__container" >
    <g id="logo-main" class="logo__main-group" transform="translate(15.000000, 0.000000)">
        <path id="logo-main-path" class="logo__main-path" d="M307.1,47 L305,54.5 C303.7,58.9 302.3,62.9 300.7,66.4 C299.4,69.5 298,72.4 296.5,75 C295,77.6 293.6,79.1 292.1,79.4 L291.7,79.4 C289.3,79.3 287,76.8 284.8,72.1 C282.6,67.3 280.4,61.6 278.1,54.7 C276.4,49.2 274.7,43.4 273,37.4 C271.3,31.4 269.4,25.9 267.5,20.7 C265.5,15.5 263.3,11.1 261,7.4 C258.7,3.7 256.1,1.5 253.2,0.8 C252.9,0.8 252.6,0.8 252.3,0.7 C252,0.6 251.7,0.6 251.4,0.6 L251.2,0.6 C250.8,0.6 250.5,0.6 250.1,0.7 C247.7,0.8 245.4,2.2 243.3,4.8 C241.1,7.6 239.1,11.2 237.2,15.7 C235.4,20.2 233.6,25.2 232,30.7 C230.4,36.2 228.8,41.7 227.2,47.1 L225.1,54.6 C223.8,59 222.4,63 220.8,66.5 C219.5,69.6 218.1,72.5 216.6,75.1 C215.1,77.7 213.7,79.2 212.2,79.5 L212,79.5 C209.6,79.4 207.3,76.9 205.1,72.2 C202.9,67.4 200.7,61.7 198.4,54.8 C196.7,49.3 195,43.5 193.3,37.5 C191.6,31.5 189.7,26 187.8,20.8 C185.8,15.6 183.6,11.2 181.3,7.5 C179,3.8 176.4,1.6 173.5,0.9 C173.2,0.9 172.9,0.9 172.6,0.8 C172.3,0.7 172,0.7 171.7,0.7 L171.5,0.7 C168.8,0.7 166.2,2.7 163.7,6.6 C161.2,10.5 158.8,15.4 156.6,21.2 C154.3,27 152.1,33.3 150,40.2 C147.9,47 145.8,53.3 143.8,59.2 C142.9,61.9 141.6,67.9 138.9,74.5 C138.9,74.5 138.9,74.5 138.9,74.6 C137.7,77.4 137.1,79.2 135,79.3 L134.6,79.3 C132.2,79.2 129.9,76.7 127.7,72 C125.5,67.2 123.3,61.5 121,54.6 C119.3,49.1 117.6,43.3 115.9,37.3 C114.2,31.3 112.3,25.8 110.4,20.6 C108.4,15.4 106.2,11 103.9,7.3 C101.6,3.6 99,1.4 96.1,0.7 C95.8,0.7 95.5,0.7 95.2,0.6 C94.9,0.5 94.6,0.5 94.3,0.5 L94.1,0.5 C91.4,0.5 88.8,2.5 86.3,6.4 C83.8,10.3 81.4,15.2 79.2,21 C76.9,26.8 74.7,33.1 72.6,40 C70.5,46.8 68.4,53.1 66.4,59 C64.4,64.8 62.5,69.7 60.8,73.6 C59,77.5 57.3,79.5 55.6,79.5 C53.9,79.5 51.6,77.7 48.6,74 C45.6,70.3 42.5,65.7 39.2,60.3 C36.7,56.1 34.3,51.7 32.1,47 C33.9,43.5 35.7,39.8 37.4,36.1 C40.3,29.7 42.2,23.9 43.2,18.6 C44.1,13.3 43.7,9 42,5.6 C40.3,2.2 36.4,0.5 30.3,0.5 C25.8,0.5 21.9,1.1 18.7,2.3 C15.5,3.5 12.8,5.1 10.5,7.1 C8.2,9.1 6.5,11.4 5.2,13.9 C3.9,16.5 2.9,19.1 2.2,21.8 C0.6,28.1 0.3,35.1 1.1,42.9 C2.7,55.3 5.1,66.3 8.3,75.9 C9.7,80 11.4,84 13.2,87.9 C15,91.8 17.2,95.3 19.8,98.4 C22.4,101.5 25.2,104 28.4,105.9 C31.6,107.7 35.2,108.7 39.2,108.7 C44.2,108.7 48.5,107.1 52.2,103.9 C55.9,100.7 59.1,96.7 61.8,91.9 C64.5,87.1 66.8,81.8 68.7,76.1 C70.6,70.4 72.2,65.2 73.6,60.3 C74.9,55.5 76.1,51.5 77.1,48.3 C78.1,45.1 79.1,43.5 80.1,43.5 C81,43.5 81.8,45.1 82.7,48.3 C83.6,51.5 84.5,55.5 85.6,60.3 C86.7,65.1 88,70.4 89.5,76.1 C91.1,81.8 93,87 95.4,91.9 C97.7,96.7 100.7,100.7 104.1,103.9 C107.6,107.1 111.7,108.7 116.6,108.7 L118.1,108.7 L118.3,108.7 L120.2,108.7 C124,108.7 127.5,107.1 130.7,104 C133.9,100.9 136.8,97 139.3,92.4 C140.5,90.3 141.5,88 142.4,85.6 C143.7,82.7 145,79.6 146.1,76.4 C148,70.7 149.6,65.5 151,60.6 C152.3,55.8 153.5,51.8 154.5,48.6 C155.5,45.4 156.5,43.8 157.5,43.8 C158.4,43.8 159.2,45.4 160.1,48.6 C161,51.8 161.9,55.8 163,60.6 C164.1,65.4 165.4,70.7 166.9,76.4 C168.5,82.1 170.4,87.3 172.8,92.2 C175.1,97 178.1,101 181.5,104.2 C185,107.4 189.1,109 194,109 L195.5,109 L195.7,109 L197.6,109 C201.4,109 204.9,107.4 208.1,104.3 C211.3,101.2 214.2,97.3 216.7,92.7 C219.3,88.1 221.6,83 223.7,77.6 C225.8,72.1 227.7,67.1 229.2,62.5 C230.8,57.9 232.1,54 233.4,50.9 C233.7,50.2 234,49.4 234.2,48.6 C234.2,48.6 234.2,48.6 234.2,48.6 C234.2,48.5 234.2,48.5 234.3,48.4 C234.4,48 234.5,47.7 234.7,47.3 C235.6,44.9 236.4,43.8 237.3,43.8 C238.2,43.8 239,45.4 239.9,48.6 C240.8,51.8 241.7,55.8 242.8,60.6 C243.9,65.4 245.2,70.7 246.7,76.4 C248.3,82.1 250.2,87.3 252.6,92.2 C254.9,97 257.9,101 261.3,104.2 C264.8,107.4 268.9,109 273.8,109 L275.3,109 L275.5,109 L277.4,109 C281.2,109 284.7,107.4 287.9,104.3 C291.1,101.2 294,97.3 296.5,92.7 C299.1,88.1 301.4,83 303.5,77.6 C305.6,72.1 307.5,67.1 309,62.5 C310.6,57.4 308.7,41.6 307.1,47 Z M22.6,10.6 C23.3,6.9 25.7,5.1 29.6,5.1 C33.6,5.1 36.1,6.5 37.2,9.3 C38.3,12.1 38.3,15.6 37.4,20 C36.5,24.3 34.8,29.2 32.5,34.5 C31.5,36.7 30.5,38.9 29.4,41.1 C26.8,35.2 24.8,29.6 23.5,24.5 C22.2,18.9 21.8,14.3 22.6,10.6 Z" ></path>
    </g>
    <g id="logo-accent" class="logo__accent-group" transform="translate(0.000000, 40.000000)">
        <path id="logo-accent-path" class="logo__accent-path" d="M44.4,0.9 L47.1,6.6 L20.8,41.6 C20.6,41.9 18.7,44.1 17.1,49.2 C15.7,53.7 15,60.8 13.2,62.8 C7.4,69.2 0.6,63.9 0.5,58.4 C0.5,56.6 1.3,52.6 3.5,49 C6.2,44.5 10.3,40.2 10.5,40.1 L16.6,33.6 L44.4,0.9 Z" ></path>
    </g>
  </g> 
</svg>