<?xml version="1.0" encoding="utf-8"?>
<!-- Generator: Adobe Illustrator 19.0.1, SVG Export Plug-In . SVG Version: 6.00 Build 0)  -->
<svg version="1.1" id="Layer_2" xmlns="http://www.w3.org/2000/svg" xmlns:xlink="http://www.w3.org/1999/xlink" x="0px" y="0px"
	 viewBox="0 0 612 792" style="enable-background:new 0 0 612 792;" xml:space="preserve">
<style type="text/css">
	.st0{clip-path:url(#accent_1_);fill:url(#background_2_);}
	.st1{clip-path:url(#main_1_);}
	.st2{fill:url(#background_3_);}
</style>
<g id="group_2">
	<g id="mask">
		<defs>
			<path id="accent" d="M208.8,333.9l2.7,5.7l-26.3,35c-0.2,0.3-2.1,2.5-3.7,7.6c-1.4,4.5-2.1,11.6-3.9,13.6
				c-5.8,6.4-12.6,1.1-12.7-4.4c0-1.8,0.8-5.8,3-9.4c2.7-4.5,6.8-8.8,7-8.9l6.1-6.5L208.8,333.9z"/>
		</defs>
		<clipPath id="accent_1_">
			<use xlink:href="#accent"  style="overflow:visible;"/>
		</clipPath>
		<linearGradient id="background_2_" gradientUnits="userSpaceOnUse" x1="164.5" y1="347.6362" x2="490.1592" y2="347.6362">
			<stop  offset="0" style="stop-color:#EC6E66"/>
			<stop  offset="1" style="stop-color:#F3A183"/>
		</linearGradient>
		<rect id="background" x="164.5" y="293" class="st0" width="325.7" height="109.2"/>
	</g>
</g>
<g id="group">
	<g>
		<defs>
			<path id="main" d="M486.5,340.1l-2.1,7.5c-1.3,4.4-2.7,8.4-4.3,11.9c-1.3,3.1-2.7,6-4.2,8.6c-1.5,2.6-2.9,4.1-4.4,4.4h-0.4
				c-2.4-0.1-4.7-2.6-6.9-7.3c-2.2-4.8-4.4-10.5-6.7-17.4c-1.7-5.5-3.4-11.3-5.1-17.3c-1.7-6-3.6-11.5-5.5-16.7
				c-2-5.2-4.2-9.6-6.5-13.3c-2.3-3.7-4.9-5.9-7.8-6.6c-0.3,0-0.6,0-0.9-0.1c-0.3-0.1-0.6-0.1-0.9-0.1h-0.2c-0.4,0-0.7,0-1.1,0.1
				c-2.4,0.1-4.7,1.5-6.8,4.1c-2.2,2.8-4.2,6.4-6.1,10.9c-1.8,4.5-3.6,9.5-5.2,15c-1.6,5.5-3.2,11-4.8,16.4l-2.1,7.5
				c-1.3,4.4-2.7,8.4-4.3,11.9c-1.3,3.1-2.7,6-4.2,8.6c-1.5,2.6-2.9,4.1-4.4,4.4h-0.4c-2.4-0.1-4.7-2.6-6.9-7.3
				c-2.2-4.8-4.4-10.5-6.7-17.4c-1.7-5.5-3.4-11.3-5.1-17.3c-1.7-6-3.6-11.5-5.5-16.7c-2-5.2-4.2-9.6-6.5-13.3
				c-2.3-3.7-4.9-5.9-7.8-6.6c-0.3,0-0.6,0-0.9-0.1c-0.3-0.1-0.6-0.1-0.9-0.1H351c-2.7,0-5.3,2-7.8,5.9c-2.5,3.9-4.9,8.8-7.1,14.6
				c-2.3,5.8-4.5,12.1-6.6,19c-2.1,6.8-4.2,13.1-6.2,19c-0.9,2.7-2.2,8.7-4.9,15.3c0,0,0,0,0,0.1c-1.2,2.8-1.8,4.6-3.9,4.7H314
				c-2.4-0.1-4.7-2.6-6.9-7.3c-2.2-4.8-4.4-10.5-6.7-17.4c-1.7-5.5-3.4-11.3-5.1-17.3c-1.7-6-3.6-11.5-5.5-16.7
				c-2-5.2-4.2-9.6-6.5-13.3c-2.3-3.7-4.9-5.9-7.8-6.6c-0.3,0-0.6,0-0.9-0.1c-0.3-0.1-0.6-0.1-0.9-0.1h-0.2c-2.7,0-5.3,2-7.8,5.9
				c-2.5,3.9-4.9,8.8-7.1,14.6c-2.3,5.8-4.5,12.1-6.6,19c-2.1,6.8-4.2,13.1-6.2,19c-2,5.8-3.9,10.7-5.6,14.6
				c-1.8,3.9-3.5,5.9-5.2,5.9s-4-1.8-7-5.5c-3-3.7-6.1-8.3-9.4-13.7c-2.5-4.2-4.9-8.6-7.1-13.3c1.8-3.5,3.6-7.2,5.3-10.9
				c2.9-6.4,4.8-12.2,5.8-17.5c0.9-5.3,0.5-9.6-1.2-13c-1.7-3.4-5.6-5.1-11.7-5.1c-4.5,0-8.4,0.6-11.6,1.8c-3.2,1.2-5.9,2.8-8.2,4.8
				c-2.3,2-4,4.3-5.3,6.8c-1.3,2.6-2.3,5.2-3,7.9c-1.6,6.3-1.9,13.3-1.1,21.1c1.6,12.4,4,23.4,7.2,33c1.4,4.1,3.1,8.1,4.9,12
				c1.8,3.9,4,7.4,6.6,10.5c2.6,3.1,5.4,5.6,8.6,7.5c3.2,1.8,6.8,2.8,10.8,2.8c5,0,9.3-1.6,13-4.8c3.7-3.2,6.9-7.2,9.6-12
				c2.7-4.8,5-10.1,6.9-15.8c1.9-5.7,3.5-10.9,4.9-15.8c1.3-4.8,2.5-8.8,3.5-12c1-3.2,2-4.8,3-4.8c0.9,0,1.7,1.6,2.6,4.8
				s1.8,7.2,2.9,12c1.1,4.8,2.4,10.1,3.9,15.8c1.6,5.7,3.5,10.9,5.9,15.8c2.3,4.8,5.3,8.8,8.7,12c3.5,3.2,7.6,4.8,12.5,4.8h1.5h0.2
				h1.9c3.8,0,7.3-1.6,10.5-4.7c3.2-3.1,6.1-7,8.6-11.6c1.2-2.1,2.2-4.4,3.1-6.8c1.3-2.9,2.6-6,3.7-9.2c1.9-5.7,3.5-10.9,4.9-15.8
				c1.3-4.8,2.5-8.8,3.5-12c1-3.2,2-4.8,3-4.8c0.9,0,1.7,1.6,2.6,4.8s1.8,7.2,2.9,12c1.1,4.8,2.4,10.1,3.9,15.8
				c1.6,5.7,3.5,10.9,5.9,15.8c2.3,4.8,5.3,8.8,8.7,12c3.5,3.2,7.6,4.8,12.5,4.8h1.5h0.2h1.9c3.8,0,7.3-1.6,10.5-4.7
				c3.2-3.1,6.1-7,8.6-11.6c2.6-4.6,4.9-9.7,7-15.1c2.1-5.5,4-10.5,5.5-15.1c1.6-4.6,2.9-8.5,4.2-11.6c0.3-0.7,0.6-1.5,0.8-2.3
				c0,0,0,0,0,0c0-0.1,0-0.1,0.1-0.2c0.1-0.4,0.2-0.7,0.4-1.1c0.9-2.4,1.7-3.5,2.6-3.5c0.9,0,1.7,1.6,2.6,4.8s1.8,7.2,2.9,12
				c1.1,4.8,2.4,10.1,3.9,15.8c1.6,5.7,3.5,10.9,5.9,15.8c2.3,4.8,5.3,8.8,8.7,12c3.5,3.2,7.6,4.8,12.5,4.8h1.5h0.2h1.9
				c3.8,0,7.3-1.6,10.5-4.7c3.2-3.1,6.1-7,8.6-11.6c2.6-4.6,4.9-9.7,7-15.1c2.1-5.5,4-10.5,5.5-15.1
				C490,350.5,488.1,334.7,486.5,340.1z M202,303.6c0.7-3.7,3.1-5.5,7-5.5c4,0,6.5,1.4,7.6,4.2c1.1,2.8,1.1,6.3,0.2,10.7
				c-0.9,4.3-2.6,9.2-4.9,14.5c-1,2.2-2,4.4-3.1,6.6c-2.6-5.9-4.6-11.5-5.9-16.6C201.6,311.9,201.3,307.3,202,303.6z"/>
		</defs>
		<clipPath id="main_1_">
			<use xlink:href="#main"  style="overflow:visible;"/>
		</clipPath>
		<g id="mask_1_" class="st1">
			<linearGradient id="background_3_" gradientUnits="userSpaceOnUse" x1="164.5" y1="347.6362" x2="490.1592" y2="347.6362">
				<stop  offset="0" style="stop-color:#EC6E66"/>
				<stop  offset="1" style="stop-color:#F3A183"/>
			</linearGradient>
			<rect id="background_1_" x="164.5" y="293" class="st2" width="325.7" height="109.2"/>
		</g>
	</g>
</g>
</svg>
