<?xml version="1.0" encoding="utf-8"?>
<!-- Generator: Adobe Illustrator 23.0.3, SVG Export Plug-In . SVG Version: 6.00 Build 0)  -->
<svg version="1.1" id="Layer_1" xmlns="http://www.w3.org/2000/svg" xmlns:xlink="http://www.w3.org/1999/xlink" x="0px" y="0px"
	 viewBox="0 0 325 325" style="enable-background:new 0 0 325 325;" xml:space="preserve">
<style type="text/css">
	.st0{clip-path:url(#SVGID_2_);}
	.st1{fill:url(#background_2_);}
</style>
<g id="group">
	<g>
		<g>
			<defs>
				<path id="SVGID_1_" d="M314.5,154.8l-2.1,7.5c-1.3,4.4-2.7,8.4-4.3,11.9c-1.3,3.1-2.7,6-4.2,8.6s-2.9,4.1-4.4,4.4h-0.4
					c-2.4-0.1-4.7-2.6-6.9-7.3c-2.2-4.8-4.4-10.5-6.7-17.4c-1.7-5.5-3.4-11.3-5.1-17.3s-3.6-11.5-5.5-16.7c-2-5.2-4.2-9.6-6.5-13.3
					c-2.3-3.7-4.9-5.9-7.8-6.6c-0.3,0-0.6,0-0.9-0.1s-0.6-0.1-0.9-0.1h-0.2c-0.4,0-0.7,0-1.1,0.1c-2.4,0.1-4.7,1.5-6.8,4.1
					c-2.2,2.8-4.2,6.4-6.1,10.9c-1.8,4.5-3.6,9.5-5.2,15s-3.2,11-4.8,16.4l-2.1,7.5c-1.3,4.4-2.7,8.4-4.3,11.9
					c-1.3,3.1-2.7,6-4.2,8.6s-2.9,4.1-4.4,4.4h-0.4c-2.4-0.1-4.7-2.6-6.9-7.3c-2.2-4.8-4.4-10.5-6.7-17.4
					c-1.7-5.5-3.4-11.3-5.1-17.3s-3.6-11.5-5.5-16.7c-2-5.2-4.2-9.6-6.5-13.3c-2.3-3.7-4.9-5.9-7.8-6.6c-0.3,0-0.6,0-0.9-0.1
					s-0.6-0.1-0.9-0.1h0.1c-2.7,0-5.3,2-7.8,5.9s-4.9,8.8-7.1,14.6c-2.3,5.8-4.5,12.1-6.6,19c-2.1,6.8-4.2,13.1-6.2,19
					c-0.9,2.7-2.2,8.7-4.9,15.3c0,0,0,0,0,0.1c-1.2,2.8-1.8,4.6-3.9,4.7H142c-2.4-0.1-4.7-2.6-6.9-7.3c-2.2-4.8-4.4-10.5-6.7-17.4
					c-1.7-5.5-3.4-11.3-5.1-17.3s-3.6-11.5-5.5-16.7c-2-5.2-4.2-9.6-6.5-13.3c-2.3-3.7-4.9-5.9-7.8-6.6c-0.3,0-0.6,0-0.9-0.1
					s-0.6-0.1-0.9-0.1h-0.2c-2.7,0-5.3,2-7.8,5.9s-4.9,8.8-7.1,14.6c-2.3,5.8-4.5,12.1-6.6,19c-2.1,6.8-4.2,13.1-6.2,19
					c-2,5.8-3.9,10.7-5.6,14.6c-1.8,3.9-3.5,5.9-5.2,5.9s-4-1.8-7-5.5s-6.1-8.3-9.4-13.7c-2.5-4.2-4.9-8.6-7.1-13.3
					c1.8-3.5,3.6-7.2,5.3-10.9c2.9-6.4,4.8-12.2,5.8-17.5c0.9-5.3,0.5-9.6-1.2-13s-5.6-5.1-11.7-5.1c-4.5,0-8.4,0.6-11.6,1.8
					c-3.2,1.2-5.9,2.8-8.2,4.8s-4,4.3-5.3,6.8c-1.3,2.6-2.3,5.2-3,7.9c-1.6,6.3-1.9,13.3-1.1,21.1c1.6,12.4,4,23.4,7.2,33
					c1.4,4.1,3.1,8.1,4.9,12c1.8,3.9,4,7.4,6.6,10.5s5.4,5.6,8.6,7.5c3.2,1.8,6.8,2.8,10.8,2.8c5,0,9.3-1.6,13-4.8
					c3.7-3.2,6.9-7.2,9.6-12c2.7-4.8,5-10.1,6.9-15.8c1.9-5.7,3.5-10.9,4.9-15.8c1.3-4.8,2.5-8.8,3.5-12s2-4.8,3-4.8
					c0.9,0,1.7,1.6,2.6,4.8s1.8,7.2,2.9,12s2.4,10.1,3.9,15.8c1.6,5.7,3.5,10.9,5.9,15.8c2.3,4.8,5.3,8.8,8.7,12
					c3.5,3.2,7.6,4.8,12.5,4.8h1.5h0.2h1.9c3.8,0,7.3-1.6,10.5-4.7s6.1-7,8.6-11.6c1.2-2.1,2.2-4.4,3.1-6.8c1.3-2.9,2.6-6,3.7-9.2
					c1.9-5.7,3.5-10.9,4.9-15.8c1.3-4.8,2.5-8.8,3.5-12s2-4.8,3-4.8c0.9,0,1.7,1.6,2.6,4.8s1.8,7.2,2.9,12s2.4,10.1,3.9,15.8
					c1.6,5.7,3.5,10.9,5.9,15.8c2.3,4.8,5.3,8.8,8.7,12c3.5,3.2,7.6,4.8,12.5,4.8h1.5h0.2h1.9c3.8,0,7.3-1.6,10.5-4.7
					s6.1-7,8.6-11.6c2.6-4.6,4.9-9.7,7-15.1c2.1-5.5,4-10.5,5.5-15.1c1.6-4.6,2.9-8.5,4.2-11.6c0.3-0.7,0.6-1.5,0.8-2.3l0,0
					c0-0.1,0-0.1,0.1-0.2c0.1-0.4,0.2-0.7,0.4-1.1c0.9-2.4,1.7-3.5,2.6-3.5s1.7,1.6,2.6,4.8s1.8,7.2,2.9,12s2.4,10.1,3.9,15.8
					c1.6,5.7,3.5,10.9,5.9,15.8c2.3,4.8,5.3,8.8,8.7,12c3.5,3.2,7.6,4.8,12.5,4.8h1.5h0.2h1.9c3.8,0,7.3-1.6,10.5-4.7
					s6.1-7,8.6-11.6c2.6-4.6,4.9-9.7,7-15.1c2.1-5.5,4-10.5,5.5-15.1C318,165.2,316.1,149.4,314.5,154.8z M30,118.3
					c0.7-3.7,3.1-5.5,7-5.5c4,0,6.5,1.4,7.6,4.2c1.1,2.8,1.1,6.3,0.2,10.7c-0.9,4.3-2.6,9.2-4.9,14.5c-1,2.2-2,4.4-3.1,6.6
					c-2.6-5.9-4.6-11.5-5.9-16.6C29.6,126.6,29.3,121.9,30,118.3z"/>
			</defs>
			<clipPath id="SVGID_2_">
				<use xlink:href="#SVGID_1_"  style="overflow:visible;"/>
			</clipPath>
			<g id="mask_1_" class="st0">
				
					<linearGradient id="background_2_" gradientUnits="userSpaceOnUse" x1="-7.5391" y1="331.75" x2="318.1609" y2="331.75" gradientTransform="matrix(1 0 0 -1 0 494)">
					<stop  offset="0" style="stop-color:#EC6E66"/>
					<stop  offset="1" style="stop-color:#F3A183"/>
				</linearGradient>
				<rect id="background_1_" x="-7.5" y="107.7" class="st1" width="325.7" height="109.2"/>
			</g>
		</g>
	</g>
</g>
</svg>
