<?xml version="1.0" encoding="UTF-8"?>
<svg width="931px" height="882px" viewBox="0 0 931 882" version="1.1" xmlns="http://www.w3.org/2000/svg" xmlns:xlink="http://www.w3.org/1999/xlink">
    <!-- Generator: Sketch 52.6 (67491) - http://www.bohemiancoding.com/sketch -->
    <title>Bundles</title>
    <desc>Created with Sketch.</desc>
    <defs>
        <linearGradient x1="50%" y1="0%" x2="50%" y2="100%" id="linearGradient-1">
            <stop stop-color="#FFFFFF" stop-opacity="0" offset="0%"></stop>
            <stop stop-color="#000000" offset="100%"></stop>
        </linearGradient>
    </defs>
    <g id="MAIN" stroke="none" stroke-width="1" fill="none" fill-rule="evenodd">
        <g id="ARTICLE-TEMPLATE---TUFTS-STANDARD" transform="translate(-389.000000, -3451.000000)">
            <g id="MAIN" transform="translate(-433.000000, 1450.000000)">
                <g id="Bundles" transform="translate(823.000000, 2001.000000)">
                    <g id="Wireframe" transform="translate(193.000000, 0.000000)">
                        <rect id="Rectangle" fill="#D8D8D8" x="0" y="27" width="737" height="855"></rect>
                        <g id="Browser" transform="translate(368.500000, 27.500000) scale(1, -1) translate(-368.500000, -27.500000) ">
                            <path d="M1.03584031e-16,3.8458278 L-9.9176245e-16,51.1541722 C-8.27993115e-16,52.4914503 0.139238417,52.9763797 0.400699056,53.4652686 C0.662159695,53.9541574 1.04584256,54.3378403 1.53473144,54.5993009 C2.02362033,54.8607616 2.50854969,55 3.8458278,55 L733.154172,55 C734.49145,55 734.97638,54.8607616 735.465269,54.5993009 C735.954157,54.3378403 736.33784,53.9541574 736.599301,53.4652686 C736.860762,52.9763797 737,52.4914503 737,51.1541722 L737,3.8458278 C737,2.50854969 736.860762,2.02362033 736.599301,1.53473144 C736.33784,1.04584256 735.954157,0.662159695 735.465269,0.400699056 C734.97638,0.139238417 734.49145,-9.02779573e-17 733.154172,1.55376046e-16 L3.8458278,-1.55376046e-16 C2.50854969,9.02779573e-17 2.02362033,0.139238417 1.53473144,0.400699056 C1.04584256,0.662159695 0.662159695,1.04584256 0.400699056,1.53473144 C0.139238417,2.02362033 -6.01853049e-17,2.50854969 1.03584031e-16,3.8458278 Z" id="background" fill="#FFFFFF"></path>
                            <circle id="object" fill="#D3D3D3" cx="13.5" cy="40.5" r="2.5"></circle>
                            <path d="M21.5,43 C22.8807119,43 24,41.8807119 24,40.5 C24,39.1192881 22.8807119,38 21.5,38 C20.1192881,38 19,39.1192881 19,40.5 C19,41.8807119 20.1192881,43 21.5,43 Z" id="object" fill="#D3D3D3"></path>
                            <circle id="object" fill="#D3D3D3" cx="29.5" cy="40.5" r="2.5"></circle>
                        </g>
                        <g id="Events" transform="translate(0.000000, 816.000000)">
                            <rect id="Rectangle" fill="#E9E9E9" x="0" y="0" width="737" height="66"></rect>
                            <g id="text/titleH1" transform="translate(293.000000, 21.000000)" fill="#D8D8D8">
                                <polygon id="Rectangle" points="0 0 153 0 153 15 0 15"></polygon>
                            </g>
                            <g id="title2" transform="translate(303.200000, 42.697248)" fill="#D8D8D8">
                                <rect id="Rectangle" x="0" y="0" width="132.6" height="11.1009174"></rect>
                            </g>
                        </g>
                        <g id="News" transform="translate(0.000000, 444.000000)">
                            <rect id="Rectangle" fill="#FFFFFF" x="0" y="0" width="737" height="372"></rect>
                            <g id="Group-8" transform="translate(62.000000, 103.000000)">
                                <g id="resource/image">
                                    <g id="Image-Place-Holder">
                                        <polygon id="Fill-1" fill="#DFDDDD" points="0 129.937617 189 129.937617 189 0 0 0"></polygon>
                                        <polygon id="Fill-2" fill="#CECACA" points="76.5564876 103.97593 44.6576188 71.5292445 0 129.59106 189 129.59106 121.215701 43.3534553"></polygon>
                                    </g>
                                </g>
                                <g id="resource/image" transform="translate(212.000000, 0.000000)">
                                    <g id="Image-Place-Holder">
                                        <polygon id="Fill-1" fill="#DFDDDD" points="0 129.937617 189 129.937617 189 0 0 0"></polygon>
                                        <polygon id="Fill-2" fill="#CECACA" points="76.5564876 103.97593 44.6576188 71.5292445 0 129.59106 189 129.59106 121.215701 43.3534553"></polygon>
                                    </g>
                                </g>
                                <g id="resource/image" transform="translate(425.000000, 0.000000)">
                                    <g id="Image-Place-Holder">
                                        <polygon id="Fill-1" fill="#DFDDDD" points="0 129.937617 189 129.937617 189 0 0 0"></polygon>
                                        <polygon id="Fill-2" fill="#CECACA" points="76.5564876 103.97593 44.6576188 71.5292445 0 129.59106 189 129.59106 121.215701 43.3534553"></polygon>
                                    </g>
                                </g>
                                <g id="text/paragraph" transform="translate(0.000000, 143.000000)" fill="#D8D8D8">
                                    <g id="Group-2">
                                        <rect id="Rectangle" x="0" y="0" width="190" height="7"></rect>
                                        <rect id="Rectangle" x="0" y="14" width="190" height="7"></rect>
                                        <rect id="Rectangle" x="0" y="28" width="190" height="7"></rect>
                                        <rect id="Rectangle" x="0" y="42" width="190" height="7"></rect>
                                        <rect id="Rectangle" x="0" y="56" width="140.649351" height="7"></rect>
                                    </g>
                                </g>
                                <g id="text/paragraph" transform="translate(212.000000, 143.000000)" fill="#D8D8D8">
                                    <g id="Group-2">
                                        <rect id="Rectangle" x="0" y="0" width="190" height="7"></rect>
                                        <rect id="Rectangle" x="0" y="14" width="190" height="7"></rect>
                                        <rect id="Rectangle" x="0" y="28" width="190" height="7"></rect>
                                        <rect id="Rectangle" x="0" y="42" width="190" height="7"></rect>
                                        <rect id="Rectangle" x="0" y="56" width="140.649351" height="7"></rect>
                                    </g>
                                </g>
                                <g id="text/paragraph" transform="translate(424.000000, 143.000000)" fill="#D8D8D8">
                                    <g id="Group-2">
                                        <rect id="Rectangle" x="0" y="0" width="190" height="7"></rect>
                                        <rect id="Rectangle" x="0" y="14" width="190" height="7"></rect>
                                        <rect id="Rectangle" x="0" y="28" width="190" height="7"></rect>
                                        <rect id="Rectangle" x="0" y="42" width="190" height="7"></rect>
                                        <rect id="Rectangle" x="0" y="56" width="140.649351" height="7"></rect>
                                    </g>
                                </g>
                            </g>
                            <g id="text/titleH1" transform="translate(290.000000, 39.000000)" fill="#D8D8D8">
                                <polygon id="Rectangle" points="0 0 153 0 153 15 0 15"></polygon>
                            </g>
                            <g id="title2" transform="translate(301.000000, 61.000000)" fill="#D8D8D8">
                                <rect id="Rectangle" x="0" y="0" width="132.582011" height="10.5736434"></rect>
                            </g>
                        </g>
                        <g id="Media" transform="translate(0.000000, 62.000000)" opacity="0.370452425">
                            <g id="resource/image">
                                <g id="Image-Place-Holder">
                                    <polygon id="Fill-1" fill="#DFDDDD" points="0 381.816689 737 381.816689 737 0 0 0"></polygon>
                                    <polygon id="Fill-2" fill="#CECACA" points="298.529795 281.607138 174.141085 154.087727 0 382.277708 737 382.277708 472.6771 43.3534553"></polygon>
                                </g>
                            </g>
                        </g>
                        <g id="title" opacity="0.55312965" transform="translate(229.000000, 225.000000)" fill="#4D4D4D">
                            <polygon id="Rectangle" points="0 0 279.589844 0 279.589844 28.0949332 0 28.0949332"></polygon>
                        </g>
                        <g id="title2" opacity="0.54671224" transform="translate(247.000000, 265.000000)" fill="#4D4D4D">
                            <rect id="Rectangle" x="0" y="0" width="242.236305" height="19.2248062"></rect>
                        </g>
                        <g id="Events" transform="translate(0.000000, 816.000000)">
                            <rect id="Rectangle" fill="#E9E9E9" x="0" y="0" width="737" height="66"></rect>
                            <g id="text/titleH1" transform="translate(293.000000, 21.000000)" fill="#D8D8D8">
                                <polygon id="Rectangle" points="0 0 153 0 153 15 0 15"></polygon>
                            </g>
                            <g id="title2" transform="translate(303.200000, 42.697248)" fill="#D8D8D8">
                                <rect id="Rectangle" x="0" y="0" width="132.6" height="11.1009174"></rect>
                            </g>
                        </g>
                        <g id="Navigation" transform="translate(0.000000, 27.000000)">
                            <rect id="Nav-Bottom" fill="#4D4D4D" x="0" y="35" width="737" height="63"></rect>
                            <rect id="Nav-Top" fill="#2D2D2D" x="0" y="0" width="737" height="35"></rect>
                        </g>
                        <rect id="Shadow" fill="url(#linearGradient-1)" opacity="0.0783575149" x="0" y="838" width="737" height="44"></rect>
                        <g id="title" opacity="0.55312965" transform="translate(63.000000, 75.000000)" fill="#FFFFFF">
                            <polygon id="Rectangle" points="0 0 184 0 184 19 133.975362 19 0 19"></polygon>
                        </g>
                        <g id="title" opacity="0.55312965" transform="translate(63.000000, 104.000000)" fill="#FFFFFF">
                            <polygon id="Rectangle" points="0 0 81 0 81 12 0 12"></polygon>
                        </g>
                        <g id="title" opacity="0.55312965" transform="translate(166.000000, 104.000000)" fill="#FFFFFF">
                            <polygon id="Rectangle" points="0 0 81 0 81 12 0 12"></polygon>
                        </g>
                        <g id="title" opacity="0.55312965" transform="translate(269.000000, 104.000000)" fill="#FFFFFF">
                            <polygon id="Rectangle" points="0 0 81 0 81 12 0 12"></polygon>
                        </g>
                        <g id="title" opacity="0.55312965" transform="translate(372.000000, 104.000000)" fill="#FFFFFF">
                            <polygon id="Rectangle" points="0 0 81 0 81 12 0 12"></polygon>
                        </g>
                        <g id="title" opacity="0.55312965" transform="translate(475.000000, 104.000000)" fill="#FFFFFF">
                            <polygon id="Rectangle" points="0 0 81 0 81 12 0 12"></polygon>
                        </g>
                        <g id="title" opacity="0.55312965" transform="translate(578.000000, 104.000000)" fill="#FFFFFF">
                            <polygon id="Rectangle" points="0 0 81 0 81 12 0 12"></polygon>
                        </g>
                    </g>
                    <g id="tufts-logo-univ-white" transform="translate(257.000000, 38.000000)" fill="#FFFFFF">
                        <g id="Fill-2">
                            <path d="M29.473202,4.3248548 L29.4730197,4.3248548 C28.9481736,4.76941192 28.6819672,5.32173768 28.6819672,5.96614831 C28.6819672,6.65329952 28.9633985,7.21277929 29.5186941,7.62945414 C30.0893058,8.05722686 31.0408114,8.38172513 32.3463169,8.594144 C33.0101007,8.70539793 33.4465152,8.82132947 33.6810868,8.94817546 C33.9407292,9.08877914 34.0722826,9.29239309 34.0722826,9.55333078 C34.0722826,9.8281179 33.9327977,10.0548448 33.6578393,10.227458 C33.3996556,10.3890651 33.0408239,10.4707859 32.5913726,10.4707859 C32.0720878,10.4707859 31.6277418,10.3479755 31.2705512,10.1057483 C30.9385225,9.880122 30.7514486,9.57360046 30.7049537,9.19847386 C30.6190748,9.19847386 29.100513,9.19847386 28.9962184,9.19847386 C28.9962184,9.30633423 28.9962184,11.7043929 28.9962184,11.8122533 C29.0998748,11.8122533 30.5821523,11.8122533 30.6858999,11.8122533 C30.6858999,11.7222779 30.6858999,11.2206722 30.6858999,11.2206722 L30.884643,11.4396031 C31.2225975,11.8114278 31.8710655,12 32.8119958,12 C33.8308735,12 34.6263931,11.749885 35.1762188,11.2566257 C35.7228536,10.7662095 36,10.1268434 36,9.35677912 C36,8.81573467 35.8548628,8.34604683 35.5686909,7.9611064 C35.2804222,7.57433162 34.8916879,7.29330769 34.4126986,7.12546376 C33.9166612,6.95156644 33.1572436,6.77473415 32.1557787,6.60046996 C31.498103,6.4834378 31.0970612,6.3835569 30.9295882,6.29459045 C30.7367708,6.19278347 30.6348466,6.03172668 30.6348466,5.82930506 C30.6348466,5.33375274 31.0560362,5.08262887 31.8868373,5.08262887 C32.91392,5.08262887 33.5419666,5.37410866 33.7604017,5.94523661 C33.8277738,5.94523661 35.3433271,5.94523661 35.4482598,5.94523661 C35.4482598,5.83884373 35.4482598,3.88194861 35.4482598,3.77546402 C35.3447858,3.77546402 33.9041714,3.77546402 33.8006974,3.77546402 C33.8006974,3.8518651 33.8006974,4.11555434 33.8006974,4.11555434 L33.6420675,4.04823333 C33.0135651,3.78206771 32.3288129,3.64705882 31.6067735,3.64705882 C30.721546,3.64705882 30.0037003,3.87506976 29.473202,4.3248548 Z M26.3477466,1.32289901 C26.3477466,1.32289901 24.8424219,2.40592464 24.7765536,2.45322075 C24.7765536,2.53263036 24.7765536,3.84799582 24.7765536,3.84799582 C24.7765536,3.84799582 23.8645029,3.84799582 23.7245902,3.84799582 C23.7245902,3.98979212 23.7245902,5.2463595 23.7245902,5.38815581 C23.8645029,5.38815581 24.7765536,5.38815581 24.7765536,5.38815581 L24.7765536,9.91303139 C24.7765536,11.2567377 25.4069416,11.8823529 26.7603191,11.8823529 C27.3407318,11.8823529 27.9475101,11.7587758 28.5639344,11.5189827 C28.5639344,11.4180414 28.5639344,10.2463125 28.5639344,10.0678939 C28.3216824,10.138194 28.1068985,10.1796011 27.923533,10.1796011 C27.5597416,10.1796011 27.3240121,10.1000074 27.2027483,9.93612735 C27.0927841,9.78835002 27.0417063,9.5437721 27.0417063,9.16742759 L27.0417063,5.38815581 C27.0417063,5.38815581 28.4165805,5.38815581 28.5639344,5.38815581 C28.5639344,5.2463595 28.5639344,3.98979212 28.5639344,3.84799582 C28.4165805,3.84799582 27.0417063,3.84799582 27.0417063,3.84799582 C27.0417063,3.84799582 27.0417063,1.11255095 27.0417063,0.823529412 C26.8569627,0.956492202 26.3477466,1.32289901 26.3477466,1.32289901 Z M20.3967422,0.818787028 C19.8953436,1.36621202 19.6409818,2.06047115 19.6409818,2.88266864 L19.6409818,3.83658364 C19.6409818,3.83658364 18.6736195,3.83658364 18.5327957,3.83658364 C18.5327957,3.97862471 18.5327957,5.23726896 18.5327957,5.37931003 C18.6736195,5.37931003 19.6409818,5.37931003 19.6409818,5.37931003 L19.6409818,10.2305517 C19.6409818,10.2305517 18.6718798,10.2305517 18.5311475,10.2305517 C18.5311475,10.3724085 18.5311475,11.6226648 18.5311475,11.7647059 C18.6868961,11.7647059 23.0383326,11.7647059 23.1941727,11.7647059 C23.1941727,11.6226648 23.1941727,10.3724085 23.1941727,10.2305517 C23.0502358,10.2305517 21.898191,10.2305517 21.898191,10.2305517 L21.898191,5.37931003 C21.898191,5.37931003 23.0502358,5.37931003 23.1941727,5.37931003 C23.1941727,5.23726896 23.1941727,3.97862471 23.1941727,3.83658364 C23.0502358,3.83658364 21.898191,3.83658364 21.898191,3.83658364 L21.898191,2.73657189 C21.898191,1.62909399 22.3716629,1.39672181 22.769046,1.39672181 C23.1207392,1.39672181 23.3968014,1.6577603 23.5926545,2.16674847 C23.7200186,2.06655467 25.0198459,1.04443046 25.1409836,0.949121922 C24.6214556,0.321228503 23.7886908,0 22.6582549,0 C21.6547252,0 20.8940204,0.275509898 20.3967422,0.818787028 Z M13.6318234,3.88235294 C13.6318234,4.02354289 13.6318234,5.27455359 13.6318234,5.41574354 C13.7749448,5.41574354 14.896944,5.41574354 14.896944,5.41574354 L14.896944,9.41084175 L14.8211899,9.4673727 C14.2642014,9.88251328 13.7381161,10.0928781 13.2575198,10.0928781 C12.8722769,10.0928781 12.5950589,9.9940176 12.4338877,9.79895375 C12.2790978,9.61186104 12.2037995,9.29750498 12.2037995,8.83765272 C12.2037995,8.83765272 12.2037995,4.04113436 12.2037995,3.88235294 C12.0513797,3.88235294 8.88684601,3.88235294 8.73442623,3.88235294 C8.73442623,4.02354289 8.73442623,5.27455359 8.73442623,5.41574354 C8.8768184,5.41574354 9.96536183,5.41574354 9.96536183,5.41574354 L9.96536183,9.51153464 C9.96536183,10.2694342 10.1734805,10.8602147 10.584157,11.2672925 C10.9953804,11.6754698 11.5778027,11.8823529 12.3150149,11.8823529 C13.0814895,11.8823529 13.8511547,11.6180226 14.6024967,11.0966918 L14.896944,10.8922825 C14.896944,10.8922825 14.896944,11.6309414 14.896944,11.7629691 C15.0484522,11.7629691 17.9076905,11.7629691 18.0590164,11.7629691 C18.0590164,11.6217792 18.0590164,10.3790145 18.0590164,10.2380078 C17.9237347,10.2380078 17.1440419,10.2380078 17.1440419,10.2380078 C17.1440419,10.2380078 17.1440419,4.04223383 17.1440419,3.88235294 C16.991531,3.88235294 13.7845166,3.88235294 13.6318234,3.88235294 Z M0,0.117647059 C0,0.273898859 0,4.48377666 0,4.6399365 C0.142655334,4.6399365 1.519426,4.6399365 1.6622647,4.6399365 C1.6622647,4.48515617 1.6622647,1.97970132 1.6622647,1.97970132 L3.82446483,1.97970132 L3.82446483,10.1312814 C3.82446483,10.1312814 2.18952101,10.1312814 2.0400813,10.1312814 C2.0400813,10.274106 2.0400813,11.6218813 2.0400813,11.7647059 C2.19813901,11.7647059 8.16289225,11.7647059 8.32094996,11.7647059 C8.32094996,11.6218813 8.32094996,10.274106 8.32094996,10.1312814 C8.17141857,10.1312814 6.53665811,10.1312814 6.53665811,10.1312814 L6.53665811,1.97970132 L8.7501995,1.97970132 C8.7501995,1.97970132 8.74781579,3.21334561 8.74754075,3.35911318 C8.88350339,3.35911318 10.251106,3.35883728 10.3868852,3.35883728 C10.3868852,3.20589629 10.3868852,0.270771983 10.3868852,0.117647059 C10.2264438,0.117647059 0.160441411,0.117647059 0,0.117647059 Z" id="Fill-1"></path>
                        </g>
                    </g>
                    <g id="Point-90-left" transform="translate(94.000000, 542.500000) rotate(-180.000000) translate(-94.000000, -542.500000) translate(0.000000, 449.000000)">
                        <g id="Path-3-+-Path-5" transform="translate(9.292893, 9.000000) rotate(-225.000000) translate(-9.292893, -9.000000) translate(3.292893, 3.000000)" fill="#6D6D6D">
                            <path d="M11.5567621,11.5621177 C11.2849971,11.8327076 10.9117194,12 10.5044548,12 L1.49554521,12 C0.669578397,12 9.0953547e-13,11.3342028 9.0958655e-13,10.5 C9.09637277e-13,9.67157288 0.679554462,9 1.49554521,9 L9,9 L9,1.49554521 C9,0.669578397 9.66579723,0 10.5,0 C11.3284271,0 12,0.679554462 12,1.49554521 L12,10.5044548 C12,10.9167031 11.8341427,11.2899933 11.5642708,11.5605187 Z" id="Rectangle-10"></path>
                        </g>
                        <path d="M10,9 L146.528504,9.50001873 C146.528504,9.50001873 188.641181,7.07076327 187.487055,50.4615529 C188.641181,93.769006 187.487055,187 187.487055,187" id="Path-5" stroke="#6D6D6D" stroke-width="2" stroke-linecap="round" stroke-linejoin="round" stroke-dasharray="4,4,4,4"></path>
                    </g>
                    <g id="Point-90-left" transform="translate(93.500000, 350.500000) scale(1, -1) rotate(-180.000000) translate(-93.500000, -350.500000) translate(0.000000, 257.000000)">
                        <g id="Path-3-+-Path-5" transform="translate(8.485281, 9.192388) rotate(-225.000000) translate(-8.485281, -9.192388) translate(2.485281, 3.192388)" fill="#6D6D6D">
                            <path d="M11.5567621,11.5621177 C11.2849971,11.8327076 10.9117194,12 10.5044548,12 L1.49554521,12 C0.669578397,12 9.0953547e-13,11.3342028 9.0958655e-13,10.5 C9.09637277e-13,9.67157288 0.679554462,9 1.49554521,9 L9,9 L9,1.49554521 C9,0.669578397 9.66579723,0 10.5,0 C11.3284271,0 12,0.679554462 12,1.49554521 L12,10.5044548 C12,10.9167031 11.8341427,11.2899933 11.5642708,11.5605187 Z" id="Rectangle-10"></path>
                        </g>
                        <path d="M9,9 L145.528504,9.50001873 C145.528504,9.50001873 187.641181,7.07076327 186.487055,50.4615529 C187.641181,93.769006 186.487055,187 186.487055,187" id="Path-5" stroke="#6D6D6D" stroke-width="2" stroke-linecap="round" stroke-linejoin="round" stroke-dasharray="4,4,4,4"></path>
                    </g>
                    <g id="Point-90-left" transform="translate(94.000000, 191.500000) scale(1, -1) rotate(-180.000000) translate(-94.000000, -191.500000) translate(0.000000, 71.000000)">
                        <g id="Path-3-+-Path-5" transform="translate(9.455844, 8.485281) rotate(-225.000000) translate(-9.455844, -8.485281) translate(3.455844, 2.485281)" fill="#6D6D6D">
                            <path d="M11.5567621,11.5621177 C11.2849971,11.8327076 10.9117194,12 10.5044548,12 L1.49554521,12 C0.669578397,12 9.0953547e-13,11.3342028 9.0958655e-13,10.5 C9.09637277e-13,9.67157288 0.679554462,9 1.49554521,9 L9,9 L9,1.49554521 C9,0.669578397 9.66579723,0 10.5,0 C11.3284271,0 12,0.679554462 12,1.49554521 L12,10.5044548 C12,10.9167031 11.8341427,11.2899933 11.5642708,11.5605187 Z" id="Rectangle-10"></path>
                        </g>
                        <path d="M9,9 L146.295518,9.6517098 C146.295518,9.6517098 188.644783,6.4854892 187.484173,63.0397768 C188.644783,119.485446 187.484173,241 187.484173,241" id="Path-5" stroke="#6D6D6D" stroke-width="2" stroke-linecap="round" stroke-linejoin="round" stroke-dasharray="4,4,4,4"></path>
                    </g>
                </g>
            </g>
        </g>
    </g>
</svg>