<?xml version="1.0" encoding="UTF-8"?>
<svg width="83px" height="9px" viewBox="0 0 83 9" version="1.1" xmlns="http://www.w3.org/2000/svg" xmlns:xlink="http://www.w3.org/1999/xlink">
    <!-- Generator: Sketch 52.6 (67491) - http://www.bohemiancoding.com/sketch -->
    <title>Combined Shape</title>
    <desc>Created with Sketch.</desc>
    <g id="MAIN" stroke="none" stroke-width="1" fill="none" fill-rule="evenodd">
        <g id="HOMEPAGE-TEMPLATE---FULL" transform="translate(-679.000000, -282.000000)" fill="#000000" fill-rule="nonzero" stroke="#000000">
            <g id="MAIN" transform="translate(-1.000000, -1.000000)">
                <g id="SECTION---Introduction" transform="translate(1.000000, 0.000000)">
                    <path d="M761.023664,290.070021 C760.149477,290.434153 759.273598,290.59176 758.202247,290.59176 C755.448955,290.59176 754.060614,289.889611 751.588581,287.805905 C749.172974,285.769761 747.845959,285.098627 745.168539,285.098627 C742.469763,285.098627 740.903844,285.838857 738.401414,287.810409 C738.357263,287.845193 738.035098,288.099618 737.940668,288.173862 C735.710845,289.92703 734.335052,290.59176 732.134831,290.59176 C729.38154,290.59176 727.993199,289.889611 725.521166,287.805905 C723.105558,285.769761 721.778543,285.098627 719.101124,285.098627 C716.402347,285.098627 714.836429,285.838857 712.333998,287.810409 C712.289848,287.845193 711.967683,288.099618 711.873253,288.173862 C709.643429,289.92703 708.267636,290.59176 706.067416,290.59176 C703.314124,290.59176 701.925783,289.889611 699.45375,287.805905 C697.038143,285.769761 695.711128,285.098627 693.033708,285.098627 C690.334931,285.098627 688.769013,285.838857 686.266582,287.810409 C686.222432,287.845193 685.900267,288.099618 685.805837,288.173862 C683.576014,289.92703 682.20022,290.59176 680,290.59176 L680,289.493134 C682.128016,289.493134 683.447031,288.855836 685.623591,287.144546 C685.717589,287.070642 686.039524,286.816398 686.084007,286.781352 C688.639996,284.767603 690.263822,284 693.033708,284 C695.787,284 697.175341,284.702149 699.647374,286.785856 C702.062981,288.822 703.389996,289.493134 706.067416,289.493134 C708.195432,289.493134 709.514447,288.855836 711.691007,287.144546 C711.785005,287.070642 712.106939,286.816398 712.151423,286.781352 C714.707412,284.767603 716.331237,284 719.101124,284 C721.854415,284 723.242756,284.702149 725.714789,286.785856 C728.130397,288.822 729.457412,289.493134 732.134831,289.493134 C734.262848,289.493134 735.581862,288.855836 737.758423,287.144546 C737.85242,287.070642 738.174355,286.816398 738.218839,286.781352 C740.774828,284.767603 742.398653,284 745.168539,284 C747.921831,284 749.310172,284.702149 751.782205,286.785856 C754.197813,288.822 755.524827,289.493134 758.202247,289.493134 C759.08925,289.493134 759.835697,289.382409 760.562277,289.129336 C760.694895,289.454697 760.849294,289.768862 761.023664,290.070021 Z" id="Combined-Shape"></path>
                </g>
            </g>
        </g>
    </g>
</svg>