<?xml version="1.0" encoding="UTF-8"?>
<svg width="83px" height="9px" viewBox="0 0 83 9" version="1.1" xmlns="http://www.w3.org/2000/svg" xmlns:xlink="http://www.w3.org/1999/xlink">
    <!-- Generator: Sketch 52.6 (67491) - http://www.bohemiancoding.com/sketch -->
    <title>wave-divider</title>
    <desc>Created with Sketch.</desc>
    <g id="Page-1" stroke="none" stroke-width="1" fill="none" fill-rule="evenodd">
        <g id="wave-divider" transform="translate(1.000000, 1.000000)" fill="#FFFFFF" stroke="#FFFFFF">
            <path d="M81.023664,6.070021 C80.149477,6.434153 79.273598,6.59176 78.202247,6.59176 C75.448955,6.59176 74.060614,5.889611 71.588581,3.805905 C69.172974,1.769761 67.845959,1.098627 65.168539,1.098627 C62.469763,1.098627 60.903844,1.838857 58.401414,3.810409 C58.357263,3.845193 58.035098,4.099618 57.940668,4.173862 C55.710845,5.92703 54.335052,6.59176 52.134831,6.59176 C49.38154,6.59176 47.993199,5.889611 45.521166,3.805905 C43.105558,1.769761 41.778543,1.098627 39.101124,1.098627 C36.402347,1.098627 34.836429,1.838857 32.333998,3.810409 C32.289848,3.845193 31.967683,4.099618 31.873253,4.173862 C29.643429,5.92703 28.267636,6.59176 26.067416,6.59176 C23.314124,6.59176 21.925783,5.889611 19.45375,3.805905 C17.038143,1.769761 15.711128,1.098627 13.033708,1.098627 C10.334931,1.098627 8.769013,1.838857 6.266582,3.810409 C6.222432,3.845193 5.900267,4.099618 5.805837,4.173862 C3.576014,5.92703 2.20022,6.59176 0,6.59176 L0,5.493134 C2.128016,5.493134 3.447031,4.855836 5.623591,3.144546 C5.717589,3.070642 6.039524,2.816398 6.084007,2.781352 C8.639996,0.767603 10.263822,0 13.033708,0 C15.787,0 17.175341,0.702149 19.647374,2.785856 C22.062981,4.822 23.389996,5.493134 26.067416,5.493134 C28.195432,5.493134 29.514447,4.855836 31.691007,3.144546 C31.785005,3.070642 32.106939,2.816398 32.151423,2.781352 C34.707412,0.767603 36.331237,0 39.101124,0 C41.854415,0 43.242756,0.702149 45.714789,2.785856 C48.130397,4.822 49.457412,5.493134 52.134831,5.493134 C54.262848,5.493134 55.581862,4.855836 57.758423,3.144546 C57.85242,3.070642 58.174355,2.816398 58.218839,2.781352 C60.774828,0.767603 62.398653,0 65.168539,0 C67.921831,0 69.310172,0.702149 71.782205,2.785856 C74.197813,4.822 75.524827,5.493134 78.202247,5.493134 C79.08925,5.493134 79.835697,5.382409 80.562277,5.129336 C80.694895,5.454697 80.849294,5.768862 81.023664,6.070021 Z" id="Combined-Shape"></path>
        </g>
    </g>
</svg>