<?xml version="1.0" encoding="UTF-8"?>
<svg width="42px" height="51px" viewBox="0 0 42 51" version="1.1" xmlns="http://www.w3.org/2000/svg" xmlns:xlink="http://www.w3.org/1999/xlink">
    <!-- Generator: Sketch 54.1 (76490) - https://sketchapp.com -->
    <title>hbsp</title>
    <desc>Created with Sketch.</desc>
    <g id="Page-1" stroke="none" stroke-width="1" fill="none" fill-rule="evenodd">
        <g id="hbsp" fill-rule="nonzero">
            <path d="M20,50.72 L19.7,50.56 C19.58,50.5 0,40.31 0,16.58 L0,16.58 L0,0 L41.17,0 L41.17,16.58 C41.17,40.32 21.6,50.5 21.46,50.58 L21.46,50.58 L20.59,51.03 L20,50.72 Z" id="Path" fill="#FFFFFF"></path>
            <path d="M39.93,16 L39.93,16 L39.93,1.24 L1.25,1.24 L1.25,16 L1.25,16 L1.25,16.62 C1.25,39.62 20.25,49.47 20.3,49.5 L20.59,49.65 L20.88,49.5 C20.94,49.5 39.88,39.58 39.93,16.62 L39.93,16 Z" id="Path" fill="#FFFFFF"></path>
            <path d="M27.57,16 C27.8167602,16.3752949 27.9835602,16.7974011 28.06,17.24 C28.27,18.49 27.66,19.82 25.37,19.94 C25.37,21.82 24.87,22.58 22.49,22.63 C22.7,24.63 21.65,25.27 20.49,25.27 C19.33,25.27 18.32,24.62 18.49,22.63 C16.11,22.63 15.65,21.82 15.61,19.94 C13.32,19.82 12.71,18.5 12.92,17.24 C13.0134943,16.7923951 13.2009612,16.3697424 13.47,16 L1.25,16 L1.25,16.62 C1.25,39.62 20.25,49.47 20.3,49.5 L20.59,49.65 L20.88,49.5 C20.94,49.5 39.88,39.58 39.93,16.62 L39.93,16 L27.57,16 Z M11.72,37 C12.193201,36.6633863 12.5133346,36.1526113 12.61,35.58 C12.72,34.96 12.85,34.71 13.18,34.7 C13.51,34.69 13.64,34.97 13.74,35.58 C13.8331396,36.151407 14.1497474,36.6622969 14.62,37 C14.9,37.15 15.82,37.17 15.62,37.71 C15.5,37.95 15.33,38.45 15.08,38.23 C14.83,38.01 14.4,37.43 14.23,37.39 C14.06,37.35 14.09,37.61 14.16,37.7 C14.23,37.79 14.55,38.23 14.71,38.42 C14.8348721,38.5316202 14.8983358,38.6965541 14.8804928,38.8630885 C14.8626499,39.029623 14.7656848,39.1773681 14.62,39.26 C14.26,39.43 13.88,39.26 13.89,39.02 C13.9,38.78 13.72,37.88 13.56,37.88 C13.4,37.88 13.43,38.1 13.44,38.34 C13.39,38.84 13.72,39.24 13.68,39.49 C13.64,39.74 13.58,40 13.15,40 C12.72,40 12.66,39.74 12.62,39.49 C12.58,39.24 12.91,38.83 12.86,38.34 C12.86,38.1 12.86,37.88 12.75,37.88 C12.64,37.88 12.41,38.72 12.43,39.02 C12.45,39.32 12.06,39.43 11.7,39.26 C11.557867,39.1744593 11.4639842,39.027304 11.4463116,38.8623595 C11.4286389,38.6974149 11.4892153,38.5337105 11.61,38.42 C11.78,38.23 12.07,37.81 12.16,37.7 C12.25,37.59 12.25,37.36 12.09,37.39 C11.93,37.42 11.49,38 11.24,38.23 C10.99,38.46 10.82,37.95 10.7,37.71 C10.51,37.17 11.43,37.15 11.7,37 L11.72,37 Z M12,35.45 C12.29,35.45 12.15,35.72 12.11,35.99 C12.07,36.26 12.01,36.28 11.72,35.91 C11.43,35.54 11.72,35.49 11.99,35.46 L12,35.45 Z M14.27,35.45 C14.58,35.45 14.82,35.53 14.54,35.91 C14.26,36.29 14.19,36.26 14.15,36 C14.11,35.74 13.97,35.43 14.27,35.46 L14.27,35.45 Z M27.77,37.88 C27.61,37.88 27.43,38.72 27.45,39.02 C27.47,39.32 27.08,39.43 26.72,39.26 C26.577867,39.1744593 26.4839842,39.027304 26.4663116,38.8623595 C26.4486389,38.6974149 26.5092153,38.5337105 26.63,38.42 C26.8,38.23 27.09,37.81 27.19,37.7 C27.29,37.59 27.28,37.36 27.12,37.39 C26.96,37.42 26.52,38 26.27,38.23 C26.02,38.46 25.85,37.95 25.73,37.71 C25.54,37.17 26.46,37.15 26.73,37 C27.2040194,36.664159 27.5243867,36.1530111 27.62,35.58 C27.73,34.96 27.86,34.71 28.19,34.7 C28.52,34.69 28.64,34.97 28.75,35.58 C28.8515989,36.1558379 29.1792598,36.6671329 29.66,37 C29.94,37.15 30.86,37.17 30.66,37.71 C30.53,37.95 30.37,38.45 30.12,38.23 C29.87,38.01 29.44,37.43 29.27,37.39 C29.1,37.35 29.13,37.61 29.2,37.7 C29.27,37.79 29.59,38.23 29.75,38.42 C29.8740125,38.5330801 29.9358246,38.6990613 29.9159852,38.8657125 C29.8961458,39.0323637 29.7970942,39.1791945 29.65,39.26 C29.29,39.43 28.91,39.26 28.92,39.02 C28.93,38.78 28.75,37.88 28.59,37.88 C28.43,37.88 28.46,38.1 28.47,38.34 C28.42,38.84 28.75,39.24 28.71,39.49 C28.67,39.74 28.62,40 28.18,40 C27.74,40 27.69,39.74 27.65,39.49 C27.61,39.24 27.94,38.83 27.89,38.34 C27.89,38.1 27.89,37.88 27.77,37.88 L27.77,37.88 Z M27.04,35.42 C27.33,35.42 27.18,35.69 27.15,35.96 C27.12,36.23 27.05,36.25 26.76,35.88 C26.47,35.51 26.76,35.46 27.03,35.43 L27.04,35.42 Z M29.31,35.42 C29.63,35.42 29.86,35.5 29.58,35.88 C29.3,36.26 29.22,36.23 29.19,35.97 C29.16,35.71 29.01,35.4 29.3,35.43 L29.31,35.42 Z M29.58,20.74 C29.3,21.12 29.22,21.09 29.19,20.82 C29.16,20.55 29.01,20.25 29.3,20.28 C29.59,20.31 29.85,20.37 29.57,20.74 L29.58,20.74 Z M27.04,20.25 C27.33,20.25 27.18,20.52 27.15,20.79 C27.12,21.06 27.05,21.09 26.76,20.71 C26.47,20.33 26.76,20.28 27.03,20.25 L27.04,20.25 Z M26.73,21.83 C27.2026041,21.4972804 27.5229475,20.98977 27.62,20.42 C27.73,19.8 27.86,19.54 28.19,19.53 C28.52,19.52 28.64,19.8 28.75,20.42 C28.8470525,20.98977 29.1673959,21.4972804 29.64,21.83 C29.92,21.98 30.84,22 30.64,22.54 C30.51,22.79 30.35,23.28 30.1,23.06 C29.85,22.84 29.42,22.26 29.25,22.23 C29.08,22.2 29.11,22.46 29.18,22.53 C29.25,22.6 29.57,23.06 29.73,23.25 C29.8539776,23.365068 29.9155851,23.5324012 29.8958216,23.7003908 C29.8760581,23.8683803 29.7772977,24.0168467 29.63,24.1 C29.27,24.27 28.89,24.05 28.9,23.86 C28.91,23.67 28.73,22.72 28.57,22.72 C28.41,22.72 28.44,22.94 28.45,23.18 C28.4,23.68 28.73,24.07 28.69,24.33 C28.65,24.59 28.6,24.85 28.16,24.84 C27.72,24.83 27.67,24.58 27.63,24.33 C27.59,24.08 27.92,23.68 27.87,23.18 C27.87,22.94 27.87,22.72 27.75,22.72 C27.63,22.72 27.41,23.56 27.43,23.86 C27.45,24.16 27.06,24.27 26.7,24.1 C26.557867,24.0144593 26.4639842,23.867304 26.4463116,23.7023595 C26.4286389,23.5374149 26.4892153,23.3737105 26.61,23.26 C26.78,23.06 27.07,22.65 27.17,22.53 C27.27,22.41 27.26,22.19 27.1,22.23 C26.94,22.27 26.5,22.84 26.25,23.06 C26,23.28 25.83,22.79 25.71,22.54 C25.52,22 26.44,21.98 26.71,21.83 L26.73,21.83 Z M28.18,27.83 C27.97,25.71 29.31,25.1 30.89,25.22 C30.68,23.1 31.77,22.41 33.65,22.49 C33.4,20.01 35.07,19.72 36.37,19.8 C36.251989,19.1732471 36.4006928,18.5256734 36.7803088,18.0131917 C37.1599248,17.5007101 37.7360596,17.1697518 38.37,17.1 L38.66,17.1 C38.6149468,24.258539 36.3932623,31.2340006 32.29,37.1 C31.7512359,36.972476 31.2864825,36.6334517 31.0005257,36.1593654 C30.7145689,35.6852791 30.6314826,35.116043 30.77,34.58 C30.0454719,34.7426751 29.2879668,34.5253617 28.7598671,34.0033321 C28.2317674,33.4813025 28.0057115,32.7263603 28.16,32 C27.5834305,32.1688123 26.9625285,32.0886862 26.4477042,31.7790317 C25.9328799,31.4693772 25.5710986,30.9584429 25.45,30.37 C25.24,28.87 26.45,27.97 28.21,27.97 L28.18,27.83 Z M21.79,27.83 C22.11,27.83 22.34,27.91 22.06,28.28 C21.78,28.65 21.7,28.63 21.67,28.36 C21.64,28.09 21.49,27.79 21.78,27.83 L21.79,27.83 Z M19.52,27.83 C19.81,27.83 19.67,28.1 19.63,28.37 C19.59,28.64 19.53,28.67 19.24,28.29 C18.95,27.91 19.24,27.87 19.51,27.83 L19.52,27.83 Z M19.21,29.41 C19.6885198,29.0794736 20.0159186,28.5721852 20.12,28 C20.23,27.38 20.36,27.13 20.68,27.12 C21,27.11 21.14,27.39 21.24,28 C21.3377062,28.5722148 21.6576096,29.0826225 22.13,29.42 C22.42,29.57 23.33,29.59 23.13,30.13 C23,30.38 22.83,30.87 22.59,30.65 C22.35,30.43 21.91,29.85 21.74,29.81 C21.57,29.77 21.6,30.03 21.67,30.12 C21.74,30.21 22.06,30.65 22.22,30.84 C22.3439776,30.955068 22.4055851,31.1224012 22.3858216,31.2903908 C22.3660581,31.4583803 22.2672977,31.6068467 22.12,31.69 C21.76,31.86 21.38,31.64 21.39,31.45 C21.4,31.26 21.22,30.31 21.07,30.31 C20.92,30.31 20.94,30.53 20.95,30.76 C20.95,31.27 21.23,31.66 21.19,31.92 C21.15,32.18 21.1,32.43 20.66,32.43 C20.22,32.43 20.17,32.17 20.13,31.92 C20.09,31.67 20.42,31.27 20.37,30.76 C20.37,30.52 20.37,30.31 20.26,30.31 C20.15,30.31 19.92,31.15 19.94,31.45 C19.96,31.75 19.57,31.87 19.21,31.69 C19.0641155,31.6050482 18.9674277,31.4556799 18.9496523,31.2878015 C18.931877,31.1199231 18.9951406,30.9536188 19.12,30.84 C19.29,30.65 19.58,30.23 19.67,30.12 C19.76,30.01 19.77,29.78 19.6,29.81 C19.43,29.84 19.01,30.42 18.76,30.65 C18.51,30.88 18.34,30.38 18.21,30.13 C18.02,29.58 18.94,29.57 19.21,29.42 L19.21,29.41 Z M18.53,37.41 C18.3210354,36.5441144 18.6676418,35.6390405 19.4015278,35.1342283 C20.1354139,34.6294161 21.1045861,34.6294161 21.8384722,35.1342283 C22.5723582,35.6390405 22.9189646,36.5441144 22.71,37.41 C24.13,37 26.01,37.69 25.55,40.14 C27.17,39.59 28.42,40.44 28.5,41.77 C26.1477368,44.2431641 23.4738112,46.3890314 20.55,48.15 C17.6684497,46.4277003 15.0343436,44.3217611 12.72,41.89 C12.72,40.49 14.01,39.57 15.72,40.14 C15.26,37.7 17.14,37.01 18.56,37.41 L18.53,37.41 Z M15.86,30.28 C15.7599906,30.8803691 15.4102044,31.4102195 14.8974242,31.7380937 C14.3846441,32.065968 13.756923,32.161141 13.17,32 C13.3740213,32.7465532 13.1669356,33.5453094 12.6258914,34.0986968 C12.0848472,34.6520842 11.2909647,34.877132 10.54,34.69 C10.6922482,35.2475011 10.5958984,35.843606 10.2757708,36.3247559 C9.95564317,36.8059058 9.44303643,37.1250588 8.87,37.2 C4.76776424,31.3328951 2.54302853,24.358802 2.49,17.2 L2.92,17.2 C3.55394041,17.2697518 4.13007515,17.6007101 4.50969118,18.1131917 C4.8893072,18.6256734 5.03801103,19.2732471 4.92,19.9 C6.21,19.82 7.92,20.11 7.63,22.59 C9.51,22.51 10.63,23.2 10.38,25.32 C11.97,25.2 13.31,25.81 13.1,27.93 C14.85,27.93 16.1,28.82 15.85,30.33 L15.86,30.28 Z M11.79,20.8 C11.79,21.07 11.68,21.1 11.4,20.72 C11.12,20.34 11.4,20.29 11.68,20.26 C11.96,20.23 11.82,20.53 11.79,20.8 L11.79,20.8 Z M14,20.33 C14.31,20.33 14.55,20.42 14.27,20.79 C13.99,21.16 13.92,21.14 13.89,20.87 C13.86,20.6 13.71,20.3 14,20.33 L14,20.33 Z M13.43,20.46 C13.5301676,21.0285714 13.849818,21.5349838 14.32,21.87 C14.61,22.02 15.52,22.04 15.32,22.58 C15.19,22.83 15.03,23.32 14.78,23.1 C14.53,22.88 14.1,22.3 13.93,22.27 C13.76,22.24 13.79,22.5 13.86,22.57 C13.93,22.64 14.24,23.1 14.41,23.3 C14.5307847,23.4137105 14.5913611,23.5774149 14.5736884,23.7423595 C14.5560158,23.907304 14.462133,24.0544593 14.32,24.14 C13.95,24.31 13.58,24.09 13.59,23.9 C13.6,23.71 13.42,22.76 13.26,22.76 C13.1,22.76 13.13,22.98 13.15,23.22 C13.1,23.72 13.43,24.11 13.39,24.37 C13.35,24.63 13.3,24.89 12.86,24.88 C12.42,24.87 12.37,24.62 12.33,24.37 C12.29,24.12 12.63,23.72 12.57,23.22 C12.57,22.98 12.57,22.76 12.46,22.76 C12.35,22.76 12.12,23.6 12.13,23.9 C12.14,24.2 11.77,24.31 11.4,24.14 C11.2529058,24.0591945 11.1538542,23.9123637 11.1340148,23.7457125 C11.1141754,23.5790613 11.1759875,23.4130801 11.3,23.3 C11.47,23.1 11.76,22.69 11.85,22.57 C11.94,22.45 11.95,22.23 11.78,22.27 C11.61,22.31 11.19,22.88 10.93,23.1 C10.67,23.32 10.51,22.83 10.39,22.58 C10.2,22.04 11.12,22.02 11.39,21.87 C11.8609816,21.5357405 12.1808595,21.0289677 12.28,20.46 C12.39,19.84 12.52,19.58 12.84,19.57 C13.16,19.56 13.3,19.84 13.4,20.46 L13.43,20.46 Z" id="Shape" fill="#231F20"></path>
            <polygon id="Path" fill="#231F20" points="1.25 1.24 1.25 14.7 39.93 14.7 39.93 1.24 1.25 1.24"></polygon>
            <path d="M2.49,2.49 L2.49,13.49 L38.69,13.49 L38.69,2.49 L2.49,2.49 Z M14.88,10.11 C14.8529378,10.3580542 14.6727542,10.5622623 14.43,10.62 L14.43,11.56 C14.43,11.6594113 14.3494113,11.74 14.25,11.74 L5.44,11.74 C5.34058875,11.74 5.26,11.6594113 5.26,11.56 L5.26,10.62 C5.01724582,10.5622623 4.83706219,10.3580542 4.81,10.11 C4.83412474,9.86065944 5.01560369,9.65498329 5.26,9.6 L5.26,7 C5.01724582,6.94226228 4.83706219,6.73805417 4.81,6.49 C4.84483173,6.24960647 5.02343454,6.05512785 5.26,6 L5.26,4.75 C5.25704718,4.70141583 5.27506114,4.65389632 5.30947873,4.61947873 C5.34389632,4.58506114 5.39141583,4.56704718 5.44,4.57 L5.97,4.67 C5.97,4.67 6.61,4.67 6.97,4.67 L7.82,4.67 C8.29555701,4.65423202 8.76999845,4.72539824 9.22,4.88 C9.57,5.04 9.84,5.19 9.91,5.57 C9.99,5.19 10.25,5.04 10.61,4.88 C10.9927956,4.73356232 11.4002237,4.66226239 11.81,4.67 C12.11,4.67 12.66,4.67 12.66,4.67 C13.05,4.67 13.66,4.67 13.66,4.67 L14.19,4.57 C14.2385842,4.56704718 14.2861037,4.58506114 14.3205213,4.61947873 C14.3549389,4.65389632 14.3729528,4.70141583 14.37,4.75 L14.37,6 C14.6143963,6.05498329 14.7958753,6.26065944 14.82,6.51 C14.7958753,6.75934056 14.6143963,6.96501671 14.37,7.02 L14.37,9.6 C14.6143963,9.65498329 14.7958753,9.86065944 14.82,10.11 L14.88,10.11 Z M25.6,10.11 C25.5758753,10.3593406 25.3943963,10.5650167 25.15,10.62 L25.15,11.56 C25.15,11.6594113 25.0694113,11.74 24.97,11.74 L16.17,11.74 C16.0705887,11.74 15.99,11.6594113 15.99,11.56 L15.99,10.62 C15.7472458,10.5622623 15.5670622,10.3580542 15.54,10.11 C15.56538,9.85773045 15.751677,9.6511837 16,9.6 L16,7 C15.7572458,6.94226228 15.5770622,6.73805417 15.55,6.49 C15.5848317,6.24960647 15.7634345,6.05512785 16,6 L16,4.75 C15.9970472,4.70141583 16.0150611,4.65389632 16.0494787,4.61947873 C16.0838963,4.58506114 16.1314158,4.56704718 16.18,4.57 L16.71,4.67 C16.71,4.67 17.35,4.67 17.71,4.67 L18.55,4.67 C19.025557,4.65423202 19.4999985,4.72539824 19.95,4.88 C20.3,5.04 20.57,5.19 20.64,5.57 C20.72,5.19 20.98,5.04 21.34,4.88 C21.7227956,4.73356232 22.1302237,4.66226239 22.54,4.67 C22.85,4.67 23.38,4.67 23.38,4.67 C23.77,4.67 24.38,4.67 24.38,4.67 L24.91,4.57 C24.9585842,4.56704718 25.0061037,4.58506114 25.0405213,4.61947873 C25.0749389,4.65389632 25.0929528,4.70141583 25.09,4.75 L25.09,6 C25.3361038,6.05207809 25.5189705,6.25932694 25.54,6.51 C25.5158753,6.75934056 25.3343963,6.96501671 25.09,7.02 L25.09,9.6 C25.3361038,9.65207809 25.5189705,9.85932694 25.54,10.11 L25.6,10.11 Z M36.33,10.11 C36.3029378,10.3580542 36.1227542,10.5622623 35.88,10.62 L35.88,11.56 C35.88,11.6594113 35.7994113,11.74 35.7,11.74 L26.9,11.74 C26.8005887,11.74 26.72,11.6594113 26.72,11.56 L26.72,10.62 C26.4788266,10.5596464 26.2998545,10.3568114 26.27,10.11 C26.2941247,9.86065944 26.4756037,9.65498329 26.72,9.6 L26.72,7 C26.4788266,6.93964644 26.2998545,6.73681139 26.27,6.49 C26.3048317,6.24960647 26.4834345,6.05512785 26.72,6 L26.72,4.75 C26.7170472,4.70141583 26.7350611,4.65389632 26.7694787,4.61947873 C26.8038963,4.58506114 26.8514158,4.56704718 26.9,4.57 L27.43,4.67 C27.43,4.67 28.07,4.67 28.43,4.67 L29.43,4.67 C29.98,4.67 31.15,4.84 31.43,5.62 C31.68,4.92 32.58,4.76 33.22,4.67 C33.5529338,4.64692027 33.8870662,4.64692027 34.22,4.67 C34.61,4.67 35.22,4.67 35.22,4.67 L35.75,4.57 C35.7985842,4.56704718 35.8461037,4.58506114 35.8805213,4.61947873 C35.9149389,4.65389632 35.9329528,4.70141583 35.93,4.75 L35.93,6 C36.1743963,6.05498329 36.3558753,6.26065944 36.38,6.51 C36.3558753,6.75934056 36.1743963,6.96501671 35.93,7.02 L35.93,9.6 C36.1743963,9.65498329 36.3558753,9.86065944 36.38,10.11 L36.33,10.11 Z" id="Shape" fill="#A90533"></path>
            <path d="M17.44,10.45 L17.44,5 C17.4358729,4.97349302 17.4358729,4.94650698 17.44,4.92 L17.1,4.92 C17.055709,4.92896486 17.0184686,4.95875714 17,5 L17,10.95 L17.49,10.54 C17.4851108,10.5135574 17.4851108,10.4864426 17.49,10.46 L17.44,10.45 Z M13.13,10.56 L13.62,10.97 L13.62,5 C13.6065122,4.93816374 13.5532158,4.89306682 13.49,4.89 L13.13,4.89 C13.1363638,4.91628699 13.1363638,4.94371301 13.13,4.97 L13.13,10.46 C13.1372732,10.496306 13.1372732,10.533694 13.13,10.57 L13.13,10.56 Z M17.7,10.56 L20.57,10.56 L20.57,6 C20.5961489,5.55717582 20.3274466,5.15005111 19.91,5 C19.4795607,4.85097599 19.0251951,4.78316023 18.57,4.8 L17.87,4.8 C17.8202963,4.79230158 17.7697037,4.79230158 17.72,4.8 L17.62,5 L17.62,10.48 C17.6250683,10.5202383 17.659445,10.5503179 17.7,10.55 L17.7,10.56 Z M6.7,10.49 L6.7,5 C6.69511077,4.97355744 6.69511077,4.94644256 6.7,4.92 L6.36,4.92 C6.30466153,4.91862074 6.25370667,4.94997758 6.23,5 L6.23,10.93 L6.71,10.53 C6.70818243,10.5067021 6.70818243,10.4832979 6.71,10.46 L6.7,10.49 Z M12.97,10.49 L12.97,5 L12.97,5 L12.89,5 C12.8364083,4.97425437 12.7789967,4.9573686 12.72,4.95 L12,4.95 C11.541428,4.93119809 11.0834237,4.99905058 10.65,5.15 C10.2872168,5.28383167 10.034104,5.61482534 10,6 L10,10.51 L12.88,10.51 C12.9002265,10.5129205 12.9207192,10.5068562 12.936099,10.4933989 C12.9514788,10.4799415 12.9602098,10.4604352 12.96,10.44 L12.97,10.49 Z M6.97,10.56 L9.83,10.56 L9.83,6 L9.83,6 C9.85614893,5.55717582 9.58744662,5.15005111 9.17,5 C8.74277181,4.85197425 8.29186828,4.78416921 7.84,4.8 L7.14,4.8 C7.09027329,4.79260687 7.03972671,4.79260687 6.99,4.8 L6.88,5 L6.88,10.48 C6.88506829,10.5202383 6.919445,10.5503179 6.96,10.55 L6.97,10.56 Z M6.37,11.33 C6.27310449,11.3596383 6.16776609,11.3365536 6.09214618,11.2691088 C6.01652626,11.201664 5.98159231,11.099641 6,11 L6,5 C5.9893245,4.95394387 5.9893245,4.90605613 6,4.86 L5.5,4.76 C5.40611159,4.76 5.33,4.83611159 5.33,4.93 L5.33,6.08 C5.08,6.08 4.88,6.27 4.88,6.46 C4.88,6.65 5.08,6.8 5.33,6.84 L5.33,9.74 C5.08,9.74 4.88,9.93 4.88,10.12 C4.88,10.31 5.08,10.46 5.33,10.5 L5.33,11.4 C5.33,11.4938884 5.40611159,11.57 5.5,11.57 L9.3,11.57 C9.24283331,11.493512 9.20508611,11.4042913 9.19,11.31 L6.37,11.33 Z M28.45,10.55 L34.39,10.55 C34.4302383,10.5449317 34.4603179,10.510555 34.46,10.47 L34.46,5 L34.46,5 L34.39,5 L34.23,5 L34.1,5 C33.5178963,4.98109765 32.9366854,5.05881772 32.38,5.23 C31.8739912,5.35450965 31.5187411,5.80889923 31.52,6.33 L31.34,6.33 C31.3412589,5.80889923 30.9860088,5.35450965 30.48,5.23 C29.9233543,5.05863656 29.342113,4.98091242 28.76,5 L28.64,5 C28.549774,5.012505 28.4639602,5.0468305 28.39,5.1 L28.39,10.58 C28.39,10.6241828 28.4258172,10.66 28.47,10.66 L28.45,10.55 Z M34.61,10.55 L35.12,10.97 L35.12,5 C35.1152258,4.93580724 35.0641928,4.88477425 35,4.88 L34.6,4.88 C34.6036958,4.90653861 34.6036958,4.93346139 34.6,4.96 L34.6,10.45 C34.6125012,10.4924317 34.6125012,10.5375683 34.6,10.58 L34.61,10.55 Z M23.7,10.45 L23.7,5 L23.7,5 L23.63,5 C23.5765408,4.97391133 23.519071,4.95700847 23.46,4.95 L22.77,4.95 C22.311428,4.93119809 21.8534237,4.99905058 21.42,5.15 C20.9985931,5.29654583 20.7252461,5.70452645 20.75,6.15 L20.75,10.66 L23.63,10.66 C23.6686599,10.66 23.7,10.6286599 23.7,10.59 L23.7,10.45 Z M23.89,10.45 C23.8973341,10.4829299 23.8973341,10.5170701 23.89,10.55 L24.38,10.96 L24.38,5 C24.3665122,4.93816374 24.3132158,4.89306682 24.25,4.89 L23.89,4.89 C23.8932443,4.91656799 23.8932443,4.94343201 23.89,4.97 L23.89,10.46 L23.89,10.45 Z M28.17,10.45 L28.17,5 C28.1651108,4.97355744 28.1651108,4.94644256 28.17,4.92 L27.8,4.92 C27.7353395,4.91923086 27.6799439,4.96610404 27.67,5.03 L27.67,10.98 L28.15,10.57 C28.1449648,10.5402113 28.1449648,10.5097887 28.15,10.48 L28.17,10.45 Z M25.41,6.45 C25.41,6.26 25.22,6.11 24.96,6.08 L24.96,4.93 C24.96,4.83611159 24.8838884,4.76 24.79,4.76 L24.46,4.82 C24.4981943,4.86850256 24.5192881,4.92826835 24.52,4.99 L24.52,10.99 C24.5174733,11.0687564 24.4830076,11.1430941 24.4245321,11.1959106 C24.3660567,11.2487271 24.2886065,11.2754748 24.21,11.27 L21.15,11.27 C21.1338152,11.3639725 21.0961728,11.4529455 21.04,11.53 L24.8,11.53 C24.8938884,11.53 24.97,11.4538884 24.97,11.36 L24.97,10.46 C25.23,10.46 25.42,10.27 25.42,10.08 C25.42,9.89 25.23,9.74 24.97,9.7 L24.97,6.83 C25.23,6.83 25.42,6.64 25.42,6.45 L25.41,6.45 Z M27.82,11.28 C27.7430748,11.2826984 27.6682325,11.254704 27.6119613,11.2021843 C27.5556902,11.1496645 27.5226069,11.0769284 27.52,11 L27.52,5 C27.5085362,4.95742485 27.5085362,4.91257515 27.52,4.87 L27.02,4.77 C26.9261116,4.77 26.85,4.84611159 26.85,4.94 L26.85,6.08 C26.59,6.08 26.4,6.27 26.4,6.46 C26.4,6.65 26.59,6.8 26.85,6.84 L26.85,9.74 C26.59,9.74 26.4,9.93 26.4,10.12 C26.4,10.31 26.59,10.46 26.85,10.5 L26.85,11.4 C26.85,11.4938884 26.9261116,11.57 27.02,11.57 L30.83,11.57 C30.7691625,11.490785 30.7280314,11.39824 30.71,11.3 L27.82,11.28 Z M28.42,10.7 C28.3774919,10.7119596 28.3325081,10.7119596 28.29,10.7 L27.78,11.13 L30.78,11.13 C30.8102969,10.9674579 30.9085251,10.8255728 31.05,10.74 L28.42,10.7 Z M20.57,10.8 C20.3529331,10.7999322 20.1754267,10.973001 20.17,11.19 C20.1708024,11.3443206 20.2603071,11.4844149 20.4,11.55 L20.74,11.55 C20.8796929,11.4844149 20.9691976,11.3443206 20.97,11.19 C20.9647341,10.9768282 20.7931718,10.8052659 20.58,10.8 L20.57,10.8 Z M24.23,11.11 L23.72,10.68 L23.61,10.68 L20.9,10.68 C21.0371816,10.77098 21.1283335,10.9168231 21.15,11.08 L24.23,11.11 Z M31.3,10.8 C31.121821,10.8100385 30.9718464,10.9368965 30.9323959,11.1109431 C30.8929453,11.2849896 30.9735635,11.4641153 31.13,11.55 L31.47,11.55 C31.6096929,11.4844149 31.6991976,11.3443206 31.7,11.19 C31.6945733,10.973001 31.5170669,10.7999322 31.3,10.8 L31.3,10.8 Z M35.7,9.73 L35.7,6.83 C35.96,6.83 36.15,6.64 36.15,6.45 C36.15,6.26 35.96,6.11 35.7,6.07 L35.7,4.93 C35.7027642,4.88586092 35.6871354,4.84254638 35.6568248,4.81034134 C35.6265142,4.7781363 35.5842255,4.75991353 35.54,4.76 L35.22,4.82 C35.2575527,4.86885328 35.2785685,4.92839805 35.28,4.99 L35.28,10.99 C35.2774733,11.0687564 35.2430076,11.1430941 35.1845321,11.1959106 C35.1260567,11.2487271 35.0486065,11.2754748 34.97,11.27 L31.89,11.27 C31.8731317,11.3685958 31.831881,11.4614099 31.77,11.54 L35.54,11.54 C35.629962,11.5346991 35.700156,11.4601179 35.7,11.37 L35.7,10.47 C35.96,10.47 36.15,10.28 36.15,10.09 C36.15,9.9 35.96,9.75 35.7,9.71 L35.7,9.73 Z M34.94,11.1 L34.44,10.69 L34.36,10.69 L31.62,10.69 C31.7623863,10.7745997 31.8609347,10.9169474 31.89,11.08 L34.94,11.1 Z M17.7,10.71 C17.6577575,10.7237503 17.6122425,10.7237503 17.57,10.71 L17.05,11.15 L20.05,11.15 C20.0752801,10.9855454 20.1699707,10.8398676 20.31,10.75 L17.7,10.71 Z M13.51,11.11 L13,10.69 L12.89,10.69 L10.16,10.69 C10.2962369,10.7818959 10.3870962,10.9272709 10.41,11.09 L13.51,11.11 Z M14.69,6.45 C14.69,6.26 14.5,6.11 14.24,6.08 L14.24,4.93 C14.24,4.83611159 14.1638884,4.76 14.07,4.76 L13.74,4.82 C13.780339,4.87118869 13.8015579,4.93484567 13.8,5 L13.8,11 C13.7973931,11.0769284 13.7643098,11.1496645 13.7080387,11.2021843 C13.6517675,11.254704 13.5769252,11.2826984 13.5,11.28 L10.41,11.28 C10.3931436,11.3737741 10.3555627,11.4626016 10.3,11.54 L14.06,11.54 C14.1538884,11.54 14.23,11.4638884 14.23,11.37 L14.23,10.47 C14.48,10.47 14.68,10.28 14.68,10.09 C14.68,9.9 14.49,9.75 14.23,9.71 L14.23,6.83 C14.48,6.83 14.68,6.64 14.68,6.45 L14.69,6.45 Z M9.85,10.8 C9.66005254,10.7895513 9.49028072,10.91767 9.44822763,11.1031983 C9.40617455,11.2887266 9.50411164,11.4775259 9.68,11.55 L10,11.55 C10.1396929,11.4844149 10.2291976,11.3443206 10.23,11.19 C10.2247341,10.9768282 10.0531718,10.8052659 9.84,10.8 L9.85,10.8 Z M7,10.71 C6.95421111,10.7228004 6.90578889,10.7228004 6.86,10.71 L6.35,11.15 L9.35,11.15 C9.37401657,10.9850662 9.46901979,10.8389074 9.61,10.75 L7,10.71 Z M17.13,11.3 C17.0530748,11.3026984 16.9782325,11.274704 16.9219613,11.2221843 C16.8656902,11.1696645 16.8326069,11.0969284 16.83,11.02 L16.83,5 C16.8181451,4.95408622 16.8181451,4.90591378 16.83,4.86 L16.32,4.76 C16.2261116,4.76 16.15,4.83611159 16.15,4.93 L16.15,6.08 C15.89,6.08 15.7,6.27 15.7,6.46 C15.7,6.65 15.89,6.8 16.15,6.84 L16.15,9.74 C15.89,9.74 15.7,9.93 15.7,10.12 C15.7,10.31 15.89,10.46 16.15,10.5 L16.15,11.4 C16.15,11.4450868 16.1679107,11.488327 16.1997918,11.5202082 C16.231673,11.5520893 16.2749132,11.57 16.32,11.57 L20.13,11.57 C20.0637634,11.4929416 20.0189338,11.3998339 20,11.3 L17.13,11.3 Z" id="Shape" fill="#FFFFFF"></path>
            <path d="M11.44,9.17 C11.25,9.17 11.2,9.17 11.2,8.95 L11.2,8 C11.49,8 11.63,8.12 11.67,8.62 L11.74,8.62 L11.74,7.25 L11.67,7.25 C11.67,7.75 11.48,7.85 11.2,7.84 L11.2,6.92 C11.2,6.75 11.25,6.74 11.41,6.74 C11.8,6.74 12.01,6.84 12.07,7.4 L12.14,7.4 L12.14,6.6 L10.47,6.6 L10.47,6.7 C10.6,6.7 10.73,6.7 10.73,6.98 L10.73,8.91 C10.73,9.15 10.64,9.16 10.47,9.19 L10.47,9.29 L12.17,9.29 L12.29,8.46 L12.2,8.46 C12.02,9.07 11.73,9.17 11.44,9.17 L11.44,9.17 Z" id="Path" fill="#231F20"></path>
            <path d="M32.94,9.09 C33.03,9.09 33.16,9.23 33.44,9.23 C33.6491923,9.22016578 33.8450556,9.12444588 33.9813465,8.96543985 C34.1176374,8.80643382 34.1822756,8.59823525 34.16,8.39 C34.1776277,8.10924196 34.0584147,7.83728737 33.84,7.66 L33.42,7.37 C33.17,7.21 33.12,7.12 33.12,6.9 C33.12,6.68 33.28,6.52 33.43,6.52 C33.77,6.52 33.95,6.98 34,7.25 L34.08,7.25 L34.08,6.39 L34,6.39 C34,6.47 34,6.53 33.9,6.53 C33.8,6.53 33.68,6.4 33.45,6.4 C32.9,6.4 32.81,6.94 32.81,7.19 C32.7953927,7.5469103 32.9909504,7.87935843 33.31,8.04 L33.5,8.17 C33.69,8.29 33.82,8.39 33.82,8.65 C33.82,8.71 33.82,9.1 33.46,9.1 C33.1,9.1 32.92,8.65 32.86,8.25 L32.78,8.25 L32.78,9.25 L32.86,9.25 C32.86,9.18 32.86,9.11 32.95,9.11 L32.94,9.09 Z" id="Path" fill="#231F20"></path>
            <path d="M7.42,6.92 L8.16,9.31 L8.24,9.31 L8.89,7 C8.96,6.78 8.99,6.7 9.15,6.67 L9.15,6.57 L8.54,6.57 L8.54,6.67 C8.7,6.67 8.79,6.67 8.79,6.85 C8.78134351,6.94540821 8.76119769,7.03942205 8.73,7.13 L8.36,8.41 L8,7.15 C7.95909399,7.03983794 7.92895329,6.92597307 7.91,6.81 C7.91,6.66 7.98,6.66 8.16,6.65 L8.16,6.55 L7.16,6.55 L7.16,6.65 C7.28,6.65 7.33,6.65 7.4,6.93 L7.42,6.92 Z" id="Path" fill="#231F20"></path>
            <path d="M18.72,6.83 C18.72,6.7 18.72,6.66 18.9,6.66 C19.08,6.66 19.25,6.83 19.25,7.23 C19.25,7.63 19.1,7.83 18.72,7.84 L18.72,6.84 L18.72,6.83 Z M19,9.12 C18.81,9.12 18.75,9.12 18.75,8.75 L18.75,8 L18.83,8 L19.43,9.25 L20,9.25 L20,9.15 C19.9605298,9.15464525 19.92132,9.13944726 19.8952913,9.10941418 C19.8692627,9.07938111 19.8597919,9.03840927 19.87,9 L19.29,7.87 C19.5827427,7.77332783 19.7695623,7.48687105 19.74,7.18 C19.7425669,6.97361753 19.653922,6.77662175 19.4977583,6.64166545 C19.3415945,6.50670914 19.1338316,6.44755 18.93,6.48 L18,6.48 L18,6.58 C18.16,6.58 18.26,6.58 18.26,6.94 L18.26,8.75 C18.26,9.07 18.2,9.08 18,9.12 L18,9.22 L19,9.22 L19,9.12 Z" id="Shape" fill="#231F20"></path>
            <path d="M29.32,6.65 L29.32,8.75 C29.32,9.08 29.25,9.09 29.04,9.12 L29.04,9.22 L30.04,9.22 L30.04,9.12 C29.82,9.12 29.75,9.12 29.75,8.75 L29.75,6.65 C29.95,6.65 30.25,6.65 30.31,7.32 L30.39,7.32 L30.39,6.52 L28.68,6.52 L28.68,7.32 L28.77,7.32 C28.83,6.68 29.12,6.66 29.33,6.65 L29.32,6.65 Z" id="Path" fill="#231F20"></path>
            <path d="M31.28,7.3 L31.57,8.3 L31,8.3 L31.27,7.3 L31.28,7.3 Z M31.07,9.11 C30.97,9.11 30.83,9.11 30.83,8.94 C30.8717658,8.76214481 30.928639,8.58817984 31,8.42 L31.65,8.42 C31.7088792,8.592487 31.7523821,8.76984513 31.78,8.95 C31.78,9.08 31.73,9.09 31.55,9.11 L31.55,9.2 L32.49,9.2 L32.49,9.11 C32.35,9.11 32.31,8.98 32.17,8.55 L31.5,6.46 L31.42,6.46 L30.78,8.64 C30.69,8.94 30.65,9.08 30.5,9.11 L30.5,9.2 L31.09,9.2 L31.09,9.11 L31.07,9.11 Z" id="Shape" fill="#231F20"></path>
            <path d="M21.59,6.63 C21.72,6.63 21.86,6.63 21.86,6.91 L21.86,8.83 C21.86,9.08 21.75,9.09 21.59,9.12 L21.59,9.22 L22.59,9.22 L22.59,9.12 C22.43,9.12 22.32,9.12 22.32,8.83 L22.32,6.9 C22.32,6.63 22.46,6.63 22.59,6.62 L22.59,6.52 L21.59,6.52 L21.59,6.62 L21.59,6.63 Z" id="Path" fill="#231F20"></path>
        </g>
    </g>
</svg>