<?xml version="1.0" encoding="UTF-8"?>
<svg width="1058px" height="631px" viewBox="0 0 1058 631" version="1.1" xmlns="http://www.w3.org/2000/svg" xmlns:xlink="http://www.w3.org/1999/xlink">
    <!-- Generator: Sketch 52.6 (67491) - http://www.bohemiancoding.com/sketch -->
    <title>MuliSite Graphic</title>
    <desc>Created with Sketch.</desc>
    <g id="MAIN" stroke="none" stroke-width="1" fill="none" fill-rule="evenodd">
        <g id="ARTICLE-TEMPLATE---TUFTS-STANDARD" transform="translate(-190.000000, -2098.000000)">
            <g id="MAIN" transform="translate(-433.000000, 1450.000000)">
                <g id="MuliSite-Graphic" transform="translate(623.000000, 644.000000)">
                    <g id="Macs" transform="translate(0.000000, 57.000000)">
                        <g id="Mac" transform="translate(360.000000, 302.000000)">
                            <rect id="Display" stroke="#BBBBBB" stroke-width="2" fill="#F4F4F4" x="21" y="1" width="296" height="217" rx="15"></rect>
                            <rect id="Screen" stroke="#D8D9D9" stroke-width="2" fill="#FDFDFD" x="31" y="14" width="276" height="192"></rect>
                            <path d="M167.827005,72.5362581 C167.827005,72.5362581 154.153638,82.3744299 153.555335,82.8040663 C153.555335,83.5254208 153.555335,95.4741605 153.555335,95.4741605 C153.555335,95.4741605 145.270874,95.4741605 144,95.4741605 C144,96.7622338 144,108.176854 144,109.464927 C145.270874,109.464927 153.555335,109.464927 153.555335,109.464927 L153.555335,150.568758 C153.555335,162.774946 159.281359,168.458015 171.574538,168.458015 C176.84662,168.458015 182.35819,167.335444 187.957377,165.157171 C187.957377,164.240223 187.957377,153.596274 187.957377,151.975525 C185.756921,152.614129 183.805968,152.990269 182.140397,152.990269 C178.835958,152.990269 176.694749,152.267243 175.59327,150.778561 C174.594428,149.436157 174.130471,147.214418 174.130471,143.795716 L174.130471,109.464927 C174.130471,109.464927 186.618913,109.464927 187.957377,109.464927 C187.957377,108.176854 187.957377,96.7622338 187.957377,95.4741605 C186.618913,95.4741605 174.130471,95.4741605 174.130471,95.4741605 C174.130471,95.4741605 174.130471,70.6254628 174.130471,68 C172.452384,69.2078299 167.827005,72.5362581 167.827005,72.5362581 Z" id="Path" stroke="#F2F4F4" stroke-width="5"></path>
                            <g id="Nav" transform="translate(30.000000, 12.000000)">
                                <path d="M1,1 L1,9 L277,9 L277,1 L1,1 Z" stroke="#BBBBBB" stroke-width="2" fill="#F2F2F2"></path>
                                <path d="M238.782143,4 L238.782143,6 L249.703571,6 L249.703571,4 L238.782143,4 Z M253.675,4 L253.675,6 L264.596429,6 L264.596429,4 L253.675,4 Z M268.071429,4 L268.071429,6 L271.546429,6 L271.546429,4 L268.071429,4 Z" id="Left" fill="#BBBBBB"></path>
                                <rect id="menu" fill="#BBBBBB" x="10.9214286" y="4" width="24.325" height="2"></rect>
                                <path d="M39.2178571,4 L39.2178571,6 L50.1392857,6 L50.1392857,4 L39.2178571,4 Z M54.1107143,4 L54.1107143,6 L65.0321429,6 L65.0321429,4 L54.1107143,4 Z" id="menu" fill="#BBBBBB"></path>
                                <path d="M5.46071429,7 C6.55739406,7 7.44642857,6.10456955 7.44642857,5 C7.44642857,3.89543045 6.55739406,3 5.46071429,3 C4.36403451,3 3.475,3.89543045 3.475,5 C3.475,6.10456955 4.36403451,7 5.46071429,7 Z" id="menu" fill="#BBBBBB"></path>
                            </g>
                            <path d="M147.620588,210 L1,210 L1,215.5 C1,218.538713 3.46267758,221 6.50622138,221 L331.493779,221 C334.532298,221 337,218.532744 337,215.5 L337,210 L189.385294,210 L189.385294,210.5 C189.385294,211.884826 188.268461,213 186.887058,213 L150.118824,213 C148.740887,213 147.620588,211.879789 147.620588,210.5 L147.620588,210 Z" id="Base" stroke="#BBBBBB" stroke-width="2" fill="#F4F4F4"></path>
                            <circle id="Camera" stroke="#BBBBBB" stroke-width="3" fill="#F4F4F4" cx="169" cy="8" r="1.5"></circle>
                        </g>
                        <g id="Mac" transform="translate(0.000000, 302.000000)">
                            <rect id="Display" stroke="#BBBBBB" stroke-width="2" fill="#F4F4F4" x="21" y="1" width="296" height="217" rx="15"></rect>
                            <rect id="Screen" stroke="#BBBBBB" stroke-width="2" fill="#FDFDFD" x="31" y="14" width="276" height="192"></rect>
                            <path d="M167.827005,70.5362581 C167.827005,70.5362581 154.153638,80.3744299 153.555335,80.8040663 C153.555335,81.5254208 153.555335,93.4741605 153.555335,93.4741605 C153.555335,93.4741605 145.270874,93.4741605 144,93.4741605 C144,94.7622338 144,106.176854 144,107.464927 C145.270874,107.464927 153.555335,107.464927 153.555335,107.464927 L153.555335,148.568758 C153.555335,160.774946 159.281359,166.458015 171.574538,166.458015 C176.84662,166.458015 182.35819,165.335444 187.957377,163.157171 C187.957377,162.240223 187.957377,151.596274 187.957377,149.975525 C185.756921,150.614129 183.805968,150.990269 182.140397,150.990269 C178.835958,150.990269 176.694749,150.267243 175.59327,148.778561 C174.594428,147.436157 174.130471,145.214418 174.130471,141.795716 L174.130471,107.464927 C174.130471,107.464927 186.618913,107.464927 187.957377,107.464927 C187.957377,106.176854 187.957377,94.7622338 187.957377,93.4741605 C186.618913,93.4741605 174.130471,93.4741605 174.130471,93.4741605 C174.130471,93.4741605 174.130471,68.6254628 174.130471,66 C172.452384,67.2078299 167.827005,70.5362581 167.827005,70.5362581 Z" id="Path" stroke="#F2F4F4" stroke-width="5"></path>
                            <g id="Nav" transform="translate(30.000000, 12.000000)">
                                <path d="M1,1 L1,9 L277,9 L277,1 L1,1 Z" stroke="#BBBBBB" stroke-width="2" fill="#F2F2F2"></path>
                                <path d="M238.782143,4 L238.782143,6 L249.703571,6 L249.703571,4 L238.782143,4 Z M253.675,4 L253.675,6 L264.596429,6 L264.596429,4 L253.675,4 Z M268.071429,4 L268.071429,6 L271.546429,6 L271.546429,4 L268.071429,4 Z" id="Left" fill="#BBBBBB"></path>
                                <rect id="menu" fill="#BBBBBB" x="10.9214286" y="4" width="24.325" height="2"></rect>
                                <path d="M39.2178571,4 L39.2178571,6 L50.1392857,6 L50.1392857,4 L39.2178571,4 Z M54.1107143,4 L54.1107143,6 L65.0321429,6 L65.0321429,4 L54.1107143,4 Z" id="menu" fill="#BBBBBB"></path>
                                <path d="M5.46071429,7 C6.55739406,7 7.44642857,6.10456955 7.44642857,5 C7.44642857,3.89543045 6.55739406,3 5.46071429,3 C4.36403451,3 3.475,3.89543045 3.475,5 C3.475,6.10456955 4.36403451,7 5.46071429,7 Z" id="menu" fill="#BBBBBB"></path>
                            </g>
                            <path d="M147.620588,210 L1,210 L1,215.5 C1,218.538713 3.46267758,221 6.50622138,221 L331.493779,221 C334.532298,221 337,218.532744 337,215.5 L337,210 L189.385294,210 L189.385294,210.5 C189.385294,211.884826 188.268461,213 186.887058,213 L150.118824,213 C148.740887,213 147.620588,211.879789 147.620588,210.5 L147.620588,210 Z" id="Base" stroke="#BBBBBB" stroke-width="2" fill="#F4F4F4"></path>
                            <circle id="Camera" stroke="#BBBBBB" stroke-width="3" fill="#F4F4F4" cx="169" cy="8" r="1.5"></circle>
                        </g>
                        <g id="Mac" transform="translate(720.000000, 302.000000)">
                            <rect id="Display" stroke="#BBBBBB" stroke-width="2" fill="#F4F4F4" x="21" y="1" width="296" height="217" rx="15"></rect>
                            <rect id="Screen" stroke="#BBBBBB" stroke-width="2" fill="#FDFDFD" x="31" y="14" width="276" height="192"></rect>
                            <g id="Nav" transform="translate(30.000000, 12.000000)">
                                <path d="M1,1 L1,9 L277,9 L277,1 L1,1 Z" stroke="#BBBBBB" stroke-width="2" fill="#F2F2F2"></path>
                                <path d="M238.782143,4 L238.782143,6 L249.703571,6 L249.703571,4 L238.782143,4 Z M253.675,4 L253.675,6 L264.596429,6 L264.596429,4 L253.675,4 Z M268.071429,4 L268.071429,6 L271.546429,6 L271.546429,4 L268.071429,4 Z" id="Left" fill="#BBBBBB"></path>
                                <rect id="menu" fill="#BBBBBB" x="10.9214286" y="4" width="24.325" height="2"></rect>
                                <path d="M39.2178571,4 L39.2178571,6 L50.1392857,6 L50.1392857,4 L39.2178571,4 Z M54.1107143,4 L54.1107143,6 L65.0321429,6 L65.0321429,4 L54.1107143,4 Z" id="menu" fill="#BBBBBB"></path>
                                <path d="M5.46071429,7 C6.55739406,7 7.44642857,6.10456955 7.44642857,5 C7.44642857,3.89543045 6.55739406,3 5.46071429,3 C4.36403451,3 3.475,3.89543045 3.475,5 C3.475,6.10456955 4.36403451,7 5.46071429,7 Z" id="menu" fill="#BBBBBB"></path>
                            </g>
                            <path d="M147.620588,210 L1,210 L1,215.5 C1,218.538713 3.46267758,221 6.50622138,221 L331.493779,221 C334.532298,221 337,218.532744 337,215.5 L337,210 L189.385294,210 L189.385294,210.5 C189.385294,211.884826 188.268461,213 186.887058,213 L150.118824,213 C148.740887,213 147.620588,211.879789 147.620588,210.5 L147.620588,210 Z" id="Base" stroke="#BBBBBB" stroke-width="2" fill="#F4F4F4"></path>
                            <circle id="Camera" stroke="#BBBBBB" stroke-width="3" fill="#F4F4F4" cx="169" cy="8" r="1.5"></circle>
                            <path d="M170.827005,71.5362581 C170.827005,71.5362581 157.153638,81.3744299 156.555335,81.8040663 C156.555335,82.5254208 156.555335,94.4741605 156.555335,94.4741605 C156.555335,94.4741605 148.270874,94.4741605 147,94.4741605 C147,95.7622338 147,107.176854 147,108.464927 C148.270874,108.464927 156.555335,108.464927 156.555335,108.464927 L156.555335,149.568758 C156.555335,161.774946 162.281359,167.458015 174.574538,167.458015 C179.84662,167.458015 185.35819,166.335444 190.957377,164.157171 C190.957377,163.240223 190.957377,152.596274 190.957377,150.975525 C188.756921,151.614129 186.805968,151.990269 185.140397,151.990269 C181.835958,151.990269 179.694749,151.267243 178.59327,149.778561 C177.594428,148.436157 177.130471,146.214418 177.130471,142.795716 L177.130471,108.464927 C177.130471,108.464927 189.618913,108.464927 190.957377,108.464927 C190.957377,107.176854 190.957377,95.7622338 190.957377,94.4741605 C189.618913,94.4741605 177.130471,94.4741605 177.130471,94.4741605 C177.130471,94.4741605 177.130471,69.6254628 177.130471,67 C175.452384,68.2078299 170.827005,71.5362581 170.827005,71.5362581 Z" id="Path" stroke="#F2F4F4" stroke-width="5"></path>
                        </g>
                        <g id="Mac" transform="translate(360.000000, 0.000000)">
                            <rect id="Display" stroke="#BBBBBB" stroke-width="2" fill="#F4F4F4" x="21" y="1" width="296" height="217" rx="15"></rect>
                            <rect id="Screen" stroke="#BBBBBB" stroke-width="2" fill="#FDFDFD" x="31" y="14" width="276" height="192"></rect>
                            <g id="Nav" transform="translate(30.000000, 12.000000)">
                                <path d="M1,1 L1,9 L277,9 L277,1 L1,1 Z" stroke="#BBBBBB" stroke-width="2" fill="#F2F2F2"></path>
                                <path d="M238.782143,4 L238.782143,6 L249.703571,6 L249.703571,4 L238.782143,4 Z M253.675,4 L253.675,6 L264.596429,6 L264.596429,4 L253.675,4 Z M268.071429,4 L268.071429,6 L271.546429,6 L271.546429,4 L268.071429,4 Z" id="Left" fill="#BBBBBB"></path>
                                <rect id="menu" fill="#BBBBBB" x="10.9214286" y="4" width="24.325" height="2"></rect>
                                <path d="M39.2178571,4 L39.2178571,6 L50.1392857,6 L50.1392857,4 L39.2178571,4 Z M54.1107143,4 L54.1107143,6 L65.0321429,6 L65.0321429,4 L54.1107143,4 Z" id="menu" fill="#BBBBBB"></path>
                                <path d="M5.46071429,7 C6.55739406,7 7.44642857,6.10456955 7.44642857,5 C7.44642857,3.89543045 6.55739406,3 5.46071429,3 C4.36403451,3 3.475,3.89543045 3.475,5 C3.475,6.10456955 4.36403451,7 5.46071429,7 Z" id="menu" fill="#BBBBBB"></path>
                            </g>
                            <path d="M147.620588,210 L1,210 L1,215.5 C1,218.538713 3.46267758,221 6.50622138,221 L331.493779,221 C334.532298,221 337,218.532744 337,215.5 L337,210 L189.385294,210 L189.385294,210.5 C189.385294,211.884826 188.268461,213 186.887058,213 L150.118824,213 C148.740887,213 147.620588,211.879789 147.620588,210.5 L147.620588,210 Z" id="Base" stroke="#BBBBBB" stroke-width="2" fill="#F4F4F4"></path>
                            <circle id="Camera" stroke="#BBBBBB" stroke-width="3" fill="#F4F4F4" cx="169" cy="8" r="1.5"></circle>
                            <path d="M122,101.082845 C123.295786,101.082845 135.801453,101.080339 137.098904,101.080339 C137.098904,99.6743194 137.098904,76.9148441 137.098904,76.9148441 L156.738889,76.9148441 L156.738889,150.963548 C156.738889,150.963548 141.888149,150.963548 140.530738,150.963548 C140.530738,152.260963 140.530738,164.504112 140.530738,165.801527 C141.966429,165.801527 196.146271,165.801527 197.581962,165.801527 C197.581962,164.504112 197.581962,152.260963 197.581962,150.963548 C196.223719,150.963548 181.374645,150.963548 181.374645,150.963548 L181.374645,76.9148441 L201.480979,76.9148441 C201.480979,76.9148441 201.483477,99.7586973 201.480979,101.082845 C202.715973,101.082845 216.347541,101.080339 216.347541,101.080339 C216.347541,101.080339 216.347541,61.3909821 216.347541,60 C214.890198,60 123.457343,60 122,60 C122,61.4193866 122,99.6642943 122,101.082845 Z" id="Path" stroke="#F2F4F4" stroke-width="5"></path>
                        </g>
                    </g>
                    <g id="Arrows" transform="translate(266.000000, 269.000000)">
                        <g id="Arrow-Bend">
                            <g id="Point-90-left-2" transform="translate(49.000000, 43.000000) scale(-1, -1) rotate(-270.000000) translate(-49.000000, -43.000000) translate(8.000000, 3.000000)" stroke="#6D6D6D" stroke-linecap="round" stroke-linejoin="round" stroke-width="2">
                                <path d="M4.03613774e-13,0.0103111163 L64.1666321,0.0103111223 C64.1666321,0.0103111223 81.8768219,-1.00659677 81.3914624,17.1571727 C81.7176543,29.3409138 81.6054034,53.4794999 81.4967012,68.0011237 C81.4436592,75.0870532 81.3914621,79.8831635 81.3914621,79.8831635" id="Path-5"></path>
                            </g>
                            <g id="Arrow" transform="translate(9.098074, 78.972098) rotate(-315.000000) translate(-9.098074, -78.972098) translate(3.098074, 72.972098)" fill="#6D6D6D">
                                <path d="M11.5567621,11.5621177 C11.2849971,11.8327076 10.9117194,12 10.5044548,12 L1.49554521,12 C0.669578397,12 -9.09453933e-13,11.3342028 -9.09402853e-13,10.5 C-9.09352127e-13,9.67157288 0.679554462,9 1.49554521,9 L9,9 L9,1.49554521 C9,0.669578397 9.66579723,0 10.5,0 C11.3284271,0 12,0.679554462 12,1.49554521 L12,10.5044548 C12,10.9167031 11.8341427,11.2899933 11.5642708,11.5605187 Z" id="Rectangle-10"></path>
                            </g>
                            <circle id="Oval-1" fill="#6D6D6D" cx="88.5" cy="2.5" r="2.5"></circle>
                        </g>
                        <g id="Arrow-Bend" transform="translate(480.500000, 44.000000) scale(-1, 1) translate(-480.500000, -44.000000) translate(435.000000, 0.000000)">
                            <g id="Point-90-left-2" transform="translate(49.000000, 43.000000) scale(-1, -1) rotate(-270.000000) translate(-49.000000, -43.000000) translate(8.000000, 3.000000)" stroke="#6D6D6D" stroke-linecap="round" stroke-linejoin="round" stroke-width="2">
                                <path d="M4.03613774e-13,0.0103111163 L64.1666321,0.0103111223 C64.1666321,0.0103111223 81.8768219,-1.00659677 81.3914624,17.1571727 C81.7176543,29.3409138 81.6054034,53.4794999 81.4967012,68.0011237 C81.4436592,75.0870532 81.3914621,79.8831635 81.3914621,79.8831635" id="Path-5"></path>
                            </g>
                            <g id="Arrow" transform="translate(9.098074, 78.972098) rotate(-315.000000) translate(-9.098074, -78.972098) translate(3.098074, 72.972098)" fill="#6D6D6D">
                                <path d="M11.5567621,11.5621177 C11.2849971,11.8327076 10.9117194,12 10.5044548,12 L1.49554521,12 C0.669578397,12 -9.09453933e-13,11.3342028 -9.09402853e-13,10.5 C-9.09352127e-13,9.67157288 0.679554462,9 1.49554521,9 L9,9 L9,1.49554521 C9,0.669578397 9.66579723,0 10.5,0 C11.3284271,0 12,0.679554462 12,1.49554521 L12,10.5044548 C12,10.9167031 11.8341427,11.2899933 11.5642708,11.5605187 Z" id="Rectangle-10"></path>
                            </g>
                            <circle id="Oval-1" fill="#6D6D6D" cx="88.5" cy="2.5" r="2.5"></circle>
                        </g>
                        <g id="Arrow-Straight" transform="translate(263.000000, 50.000000) scale(-1, 1) rotate(-270.000000) translate(-263.000000, -50.000000) translate(225.000000, 41.000000)">
                            <g id="Arrow" transform="translate(66.972098, 8.998465) rotate(-45.000000) translate(-66.972098, -8.998465) translate(60.972098, 2.998465)" fill="#6D6D6D">
                                <path d="M11.5567621,11.5621177 C11.2849971,11.8327076 10.9117194,12 10.5044548,12 L1.49554521,12 C0.669578397,12 9.0953547e-13,11.3342028 9.0958655e-13,10.5 C9.09637277e-13,9.67157288 0.679554462,9 1.49554521,9 L9,9 L9,1.49554521 C9,0.669578397 9.66579723,0 10.5,0 C11.3284271,0 12,0.679554462 12,1.49554521 L12,10.5044548 C12,10.9167031 11.8341427,11.2899933 11.5642708,11.5605187 Z" id="Rectangle-10"></path>
                            </g>
                            <path d="M2,9 L73.5,9" id="Line" stroke="#6D6D6D" stroke-width="2" stroke-linecap="round"></path>
                            <circle id="Oval-1" fill="#6D6D6D" cx="2.5" cy="9" r="2.5"></circle>
                        </g>
                    </g>
                    <text id="BASE-THEME" font-family="Lato-Regular, Lato" font-size="20" font-weight="normal" line-spacing="20" fill="#1D1F24">
                        <tspan x="467.53" y="20">BASE THEME</tspan>
                        <tspan x="590.59" y="20" font-size="24"></tspan>
                    </text>
                    <text id="CHILD-THEME" font-family="Lato-Regular, Lato" font-size="20" font-weight="normal" line-spacing="20" fill="#1D1F24">
                        <tspan x="462.26" y="635.629944">CHILD THEME</tspan>
                    </text>
                    <g id="Point-to-left" transform="translate(529.000000, 39.500000) scale(-1, -1) rotate(270.000000) translate(-529.000000, -39.500000) translate(517.500000, 38.500000)" stroke="#6D6D6D" stroke-dasharray="4,4" stroke-linecap="round" stroke-width="2">
                        <path d="M0.5,1 L22.5,1" id="Line"></path>
                    </g>
                </g>
            </g>
        </g>
    </g>
</svg>