<svg xmlns="http://www.w3.org/2000/svg" xmlns:xlink="http://www.w3.org/1999/xlink"><defs>
			<path id="accent" d="M208.8,333.9l2.7,5.7l-26.3,35c-0.2,0.3-2.1,2.5-3.7,7.6c-1.4,4.5-2.1,11.6-3.9,13.6
				c-5.8,6.4-12.6,1.1-12.7-4.4c0-1.8,0.8-5.8,3-9.4c2.7-4.5,6.8-8.8,7-8.9l6.1-6.5L208.8,333.9z"/>
		
			<path id="main" d="M486.5,340.1l-2.1,7.5c-1.3,4.4-2.7,8.4-4.3,11.9c-1.3,3.1-2.7,6-4.2,8.6c-1.5,2.6-2.9,4.1-4.4,4.4h-0.4
				c-2.4-0.1-4.7-2.6-6.9-7.3c-2.2-4.8-4.4-10.5-6.7-17.4c-1.7-5.5-3.4-11.3-5.1-17.3c-1.7-6-3.6-11.5-5.5-16.7
				c-2-5.2-4.2-9.6-6.5-13.3c-2.3-3.7-4.9-5.9-7.8-6.6c-0.3,0-0.6,0-0.9-0.1c-0.3-0.1-0.6-0.1-0.9-0.1h-0.2c-0.4,0-0.7,0-1.1,0.1
				c-2.4,0.1-4.7,1.5-6.8,4.1c-2.2,2.8-4.2,6.4-6.1,10.9c-1.8,4.5-3.6,9.5-5.2,15c-1.6,5.5-3.2,11-4.8,16.4l-2.1,7.5
				c-1.3,4.4-2.7,8.4-4.3,11.9c-1.3,3.1-2.7,6-4.2,8.6c-1.5,2.6-2.9,4.1-4.4,4.4h-0.4c-2.4-0.1-4.7-2.6-6.9-7.3
				c-2.2-4.8-4.4-10.5-6.7-17.4c-1.7-5.5-3.4-11.3-5.1-17.3c-1.7-6-3.6-11.5-5.5-16.7c-2-5.2-4.2-9.6-6.5-13.3
				c-2.3-3.7-4.9-5.9-7.8-6.6c-0.3,0-0.6,0-0.9-0.1c-0.3-0.1-0.6-0.1-0.9-0.1H351c-2.7,0-5.3,2-7.8,5.9c-2.5,3.9-4.9,8.8-7.1,14.6
				c-2.3,5.8-4.5,12.1-6.6,19c-2.1,6.8-4.2,13.1-6.2,19c-0.9,2.7-2.2,8.7-4.9,15.3c0,0,0,0,0,0.1c-1.2,2.8-1.8,4.6-3.9,4.7H314
				c-2.4-0.1-4.7-2.6-6.9-7.3c-2.2-4.8-4.4-10.5-6.7-17.4c-1.7-5.5-3.4-11.3-5.1-17.3c-1.7-6-3.6-11.5-5.5-16.7
				c-2-5.2-4.2-9.6-6.5-13.3c-2.3-3.7-4.9-5.9-7.8-6.6c-0.3,0-0.6,0-0.9-0.1c-0.3-0.1-0.6-0.1-0.9-0.1h-0.2c-2.7,0-5.3,2-7.8,5.9
				c-2.5,3.9-4.9,8.8-7.1,14.6c-2.3,5.8-4.5,12.1-6.6,19c-2.1,6.8-4.2,13.1-6.2,19c-2,5.8-3.9,10.7-5.6,14.6
				c-1.8,3.9-3.5,5.9-5.2,5.9s-4-1.8-7-5.5c-3-3.7-6.1-8.3-9.4-13.7c-2.5-4.2-4.9-8.6-7.1-13.3c1.8-3.5,3.6-7.2,5.3-10.9
				c2.9-6.4,4.8-12.2,5.8-17.5c0.9-5.3,0.5-9.6-1.2-13c-1.7-3.4-5.6-5.1-11.7-5.1c-4.5,0-8.4,0.6-11.6,1.8c-3.2,1.2-5.9,2.8-8.2,4.8
				c-2.3,2-4,4.3-5.3,6.8c-1.3,2.6-2.3,5.2-3,7.9c-1.6,6.3-1.9,13.3-1.1,21.1c1.6,12.4,4,23.4,7.2,33c1.4,4.1,3.1,8.1,4.9,12
				c1.8,3.9,4,7.4,6.6,10.5c2.6,3.1,5.4,5.6,8.6,7.5c3.2,1.8,6.8,2.8,10.8,2.8c5,0,9.3-1.6,13-4.8c3.7-3.2,6.9-7.2,9.6-12
				c2.7-4.8,5-10.1,6.9-15.8c1.9-5.7,3.5-10.9,4.9-15.8c1.3-4.8,2.5-8.8,3.5-12c1-3.2,2-4.8,3-4.8c0.9,0,1.7,1.6,2.6,4.8
				s1.8,7.2,2.9,12c1.1,4.8,2.4,10.1,3.9,15.8c1.6,5.7,3.5,10.9,5.9,15.8c2.3,4.8,5.3,8.8,8.7,12c3.5,3.2,7.6,4.8,12.5,4.8h1.5h0.2
				h1.9c3.8,0,7.3-1.6,10.5-4.7c3.2-3.1,6.1-7,8.6-11.6c1.2-2.1,2.2-4.4,3.1-6.8c1.3-2.9,2.6-6,3.7-9.2c1.9-5.7,3.5-10.9,4.9-15.8
				c1.3-4.8,2.5-8.8,3.5-12c1-3.2,2-4.8,3-4.8c0.9,0,1.7,1.6,2.6,4.8s1.8,7.2,2.9,12c1.1,4.8,2.4,10.1,3.9,15.8
				c1.6,5.7,3.5,10.9,5.9,15.8c2.3,4.8,5.3,8.8,8.7,12c3.5,3.2,7.6,4.8,12.5,4.8h1.5h0.2h1.9c3.8,0,7.3-1.6,10.5-4.7
				c3.2-3.1,6.1-7,8.6-11.6c2.6-4.6,4.9-9.7,7-15.1c2.1-5.5,4-10.5,5.5-15.1c1.6-4.6,2.9-8.5,4.2-11.6c0.3-0.7,0.6-1.5,0.8-2.3
				c0,0,0,0,0,0c0-0.1,0-0.1,0.1-0.2c0.1-0.4,0.2-0.7,0.4-1.1c0.9-2.4,1.7-3.5,2.6-3.5c0.9,0,1.7,1.6,2.6,4.8s1.8,7.2,2.9,12
				c1.1,4.8,2.4,10.1,3.9,15.8c1.6,5.7,3.5,10.9,5.9,15.8c2.3,4.8,5.3,8.8,8.7,12c3.5,3.2,7.6,4.8,12.5,4.8h1.5h0.2h1.9
				c3.8,0,7.3-1.6,10.5-4.7c3.2-3.1,6.1-7,8.6-11.6c2.6-4.6,4.9-9.7,7-15.1c2.1-5.5,4-10.5,5.5-15.1
				C490,350.5,488.1,334.7,486.5,340.1z M202,303.6c0.7-3.7,3.1-5.5,7-5.5c4,0,6.5,1.4,7.6,4.2c1.1,2.8,1.1,6.3,0.2,10.7
				c-0.9,4.3-2.6,9.2-4.9,14.5c-1,2.2-2,4.4-3.1,6.6c-2.6-5.9-4.6-11.5-5.9-16.6C201.6,311.9,201.3,307.3,202,303.6z"/>
		</defs><symbol id="cannon" viewBox="0 0 125 63">
    <!-- Generator: Sketch 52.6 (67491) - http://www.bohemiancoding.com/sketch -->
    <title>Cannon</title>
    <desc>Created with Sketch.</desc>
    <g id="MAIN" stroke="none" stroke-width="1" fill="none" fill-rule="evenodd">
        <g id="HOMEPAGE-TEMPLATE---FULL" transform="translate(-659.000000, -1685.000000)" fill="#FFFFFF">
            <g id="SUBFOOTER" transform="translate(-1.000000, 1445.000000)">
                <g id="Cannon" transform="translate(660.000000, 240.000000)">
                    <g>
                        <path d="M64.4859813,0.933333333 C53.1542056,0.933333333 43.3411215,7 38.0841121,16.1 L26.8691589,16.1 L26.8691589,25.4333333 L34.4626168,25.4333333 L39.2523364,25.4333333 L62.5,25.4333333 L67.7570093,25.4333333 L89.2523364,25.4333333 L94.6261682,25.4333333 L124.182243,25.4333333 L124.182243,16.1 L91.0046729,16.1 C85.6308411,7 75.817757,0.933333333 64.4859813,0.933333333 Z M75.4672897,8.4 L67.8738318,15.9833333 L67.7570093,15.9833333 L67.7570093,6.06666667 C70.4439252,6.41666667 73.1308411,7.23333333 75.4672897,8.4 Z M62.5,16.1 L54.2056075,7.93333333 C56.7757009,6.88333333 59.5794393,6.18333333 62.5,5.95 L62.5,16.1 Z M49.4158879,10.5 L54.9065421,15.9833333 L43.6915888,15.9833333 C45.3271028,13.8833333 47.3130841,12.0166667 49.4158879,10.5 Z M75.2336449,16.1 L80.0233645,11.3166667 C81.7757009,12.7166667 83.411215,14.35 84.6962617,16.1 L75.2336449,16.1 Z" id="Shape" fill-rule="nonzero"/>
                        <path d="M95.2102804,31.5 C95.2102804,30.9166667 95.2102804,30.3333333 95.2102804,29.75 L89.953271,29.75 C89.953271,29.75 89.953271,29.75 89.953271,29.75 L38.6682243,29.75 C38.6682243,29.75 38.6682243,29.75 38.6682243,29.75 L33.9953271,29.75 C33.9953271,30.3333333 33.9953271,30.9166667 33.9953271,31.5 C33.9953271,35.5833333 34.8130841,39.4333333 36.2149533,43.05 L29.7897196,46.7833333 C29.7897196,46.7833333 28.1542056,48.0666667 26.5186916,48.7666667 C23.9485981,49.9333333 23.5981308,49.8166667 23.5981308,49.8166667 L0.23364486,49.8166667 L0.23364486,58.6833333 L23.5981308,58.6833333 L25.9345794,58.45 C26.9859813,58.3333333 27.6869159,57.9833333 28.6214953,57.5166667 C30.2570093,56.7 34.228972,54.4833333 34.228972,54.3666667 L40.771028,50.6333333 C46.3785047,57.6333333 55.0233645,62.0666667 64.7196262,62.0666667 C81.4252336,62.0666667 95.2102804,48.4166667 95.2102804,31.5 Z M62.5,40.95 L62.5,57.05 C59.5794393,56.8166667 56.7757009,56.1166667 54.2056075,55.0666667 L62.5,40.95 Z M67.7570093,40.8333333 L75.817757,54.4833333 C73.364486,55.7666667 70.6775701,56.5833333 67.7570093,56.9333333 L67.7570093,40.8333333 Z M80.2570093,51.5666667 L72.546729,38.5 L85.3971963,46.0833333 C83.9953271,48.1833333 82.2429907,50.05 80.2570093,51.5666667 Z M76.8691589,35 L89.7196262,35 C89.3691589,37.2166667 88.7850467,39.4333333 87.9672897,41.5333333 L76.8691589,35 Z M38.7850467,35 L49.8831776,35 L40.1869159,40.6 C39.6028037,38.85 39.0186916,36.9833333 38.7850467,35 Z M44.7429907,48.3 L55.9579439,41.7666667 L49.5327103,52.6166667 C47.7803738,51.3333333 46.1448598,49.8166667 44.7429907,48.3 Z" id="Shape" fill-rule="nonzero"/>
                        <ellipse id="Oval" fill-rule="nonzero" cx="22.1962617" cy="20.7666667" rx="1.86915888" ry="1.86666667"/>
                    </g>
                </g>
            </g>
        </g>
    </g>
</symbol><symbol id="close" viewBox="0 0 46.8 46.8">
<g transform="translate(0, 128)">
	<g>
		<rect x="22.4" y="-136.7" transform="matrix(0.7071 0.7071 -0.7071 0.7071 -67.0956 -47.1888)" width="2" height="64.2"/>
	</g>
	<g>
		<rect x="-8.7" y="-105.6" transform="matrix(0.7071 0.7071 -0.7071 0.7071 -67.0956 -47.1888)" width="64.2" height="2"/>
	</g>
</g>
</symbol><symbol id="custom-issue" viewBox="-49 141 512 512">
<g>
	<g>
		<rect x="73.3" y="223.9" width="7" height="330.3"/>
		<rect x="73.3" y="223.9" width="253.4" height="6.9"/>
		<rect x="319.9" y="223.9" width="6.8" height="30.8"/>
		<rect x="73.4" y="547.2" width="30.7" height="7"/>
	</g>
	<g>
		<rect x="103.6" y="254.2" width="7" height="330.4"/>
		<rect x="103.6" y="254.2" width="253.4" height="6.9"/>
		<rect x="350" y="254.2" width="7" height="330.4"/>
		<rect x="103.6" y="578" width="253.4" height="6.9"/>
	</g>
	<g>
		<rect x="44" y="194.6" width="7" height="330.4"/>
		<rect x="44" y="194.6" width="253.4" height="6.9"/>
		<rect x="290.6" y="194.6" width="6.8" height="30.8"/>
		<rect x="44.1" y="518.1" width="30.7" height="7"/>
	</g>
</g>
</symbol><symbol id="logo-original" viewBox="0 0 61 24">

        <path d="M60.5052993,10.2857143 C60.8212258,9.09124424 61.1963885,12.5861751 60.880462,13.7142857 C60.5842809,14.7317972 60.2091181,15.837788 59.7944646,17.0543779 C59.379811,18.2488479 58.9256666,19.3769585 58.412286,20.39447 C57.9186508,21.4119816 57.346034,22.2746544 56.714181,22.9603687 C56.0823279,23.6460829 55.3912386,24 54.6409131,24 L54.2657504,24 L54.2262596,24 L53.9300785,24 C52.9625535,24 52.1529917,23.6460829 51.4619025,22.9382488 C50.7905586,22.2304147 50.1981964,21.3456221 49.744052,20.283871 C49.2701622,19.2 48.8949995,18.0497696 48.5790729,16.7889401 C48.2828918,15.5281106 48.0262015,14.3557604 47.809002,13.2940092 C47.5918025,12.2322581 47.4140939,11.3474654 47.2363852,10.6396313 C47.0586765,9.93179724 46.9007133,9.57788018 46.7230046,9.57788018 C46.5452959,9.57788018 46.3873327,9.82119816 46.209624,10.3520737 C46.1701332,10.440553 46.1503878,10.5069124 46.1306424,10.5953917 C46.1108969,10.6175115 46.1108969,10.6175115 46.1108969,10.6396313 C46.0714061,10.8165899 46.0121699,10.9935484 45.9529337,11.1483871 C45.6962434,11.8341014 45.4395531,12.6967742 45.1236266,13.7142857 C44.8274454,14.7317972 44.4522827,15.837788 44.0376291,17.0543779 C43.6229756,18.2488479 43.1688312,19.3769585 42.6554506,20.39447 C42.1618154,21.4119816 41.5891986,22.2746544 40.9573455,22.9603687 C40.3254925,23.6460829 39.6344032,24 38.8840777,24 L38.5089149,24 L38.4694241,24 L38.173243,24 C37.205718,24 36.3961563,23.6460829 35.705067,22.9382488 C35.0337231,22.2304147 34.4413609,21.3456221 33.9872165,20.283871 C33.5133267,19.2 33.138164,18.0497696 32.8222375,16.7889401 C32.5260564,15.5281106 32.2693661,14.3557604 32.0521666,13.2940092 C31.8349671,12.2322581 31.6572584,11.3474654 31.4795497,10.6396313 C31.3018411,9.93179724 31.1438778,9.57788018 30.9661691,9.57788018 C30.7687151,9.57788018 30.571261,9.93179724 30.3738069,10.6396313 C30.1763528,11.3474654 29.9394079,12.2322581 29.6827176,13.2940092 C29.4062819,14.3778802 29.0903554,15.5281106 28.7151926,16.7889401 C28.4979932,17.4967742 28.2413029,18.1824885 27.9846126,18.8239631 C27.8069039,19.3548387 27.6094498,19.8635945 27.3725049,20.3281106 C26.8788697,21.3456221 26.3062529,22.2082949 25.6743998,22.8940092 C25.0425468,23.5797235 24.3514575,23.9336406 23.601132,23.9336406 L23.2259693,23.9336406 L23.1864784,23.9336406 L22.8902973,23.9336406 C21.9227723,23.9336406 21.1132106,23.5797235 20.4221213,22.8718894 C19.7507775,22.1640553 19.1584152,21.2792627 18.7042709,20.2175115 C18.2303811,19.1336406 17.8552183,17.9834101 17.5392918,16.7225806 C17.2431107,15.4617512 16.9864204,14.2894009 16.7692209,13.2276498 C16.5520214,12.1658986 16.3743127,11.281106 16.1966041,10.5732719 C16.0188954,9.86543779 15.8609321,9.51152074 15.6832235,9.51152074 C15.4857694,9.51152074 15.2883153,9.86543779 15.0908612,10.5732719 C14.8934072,11.281106 14.6564623,12.1658986 14.399772,13.2276498 C14.1233362,14.3115207 13.8074097,15.4617512 13.432247,16.7225806 C13.0570842,17.9834101 12.6029398,19.1557604 12.0698138,20.2175115 C11.5366878,21.2792627 10.9048348,22.1640553 10.1742547,22.8718894 C9.44367459,23.5797235 8.59462205,23.9336406 7.60735166,23.9336406 C6.81753535,23.9336406 6.10670067,23.7124424 5.47484761,23.3142857 C4.84299456,22.8940092 4.29012314,22.3410138 3.77674254,21.6552995 C3.26336194,20.9695853 2.82896296,20.1953917 2.47354562,19.3327189 C2.11812828,18.4700461 1.78245635,17.5852535 1.50602064,16.678341 C0.874167588,14.5548387 0.4002778,12.121659 0.0843512743,9.37880184 C-0.0736119885,7.65345622 -0.0143757649,6.10506912 0.30155076,4.71152074 C0.439768615,4.11428571 0.637222694,3.53917051 0.893912996,2.9640553 C1.1506033,2.41105991 1.48627523,1.90230415 1.94041961,1.45990783 C2.39456399,1.01751152 2.92769,0.66359447 3.55954305,0.398156682 C4.1913961,0.132718894 4.96146701,0 5.85001036,0 C7.05448024,0 7.82455115,0.376036866 8.16022308,1.1281106 C8.49589501,1.88018433 8.57487665,2.83133641 8.39716797,4.00368664 C8.1997139,5.17603687 7.82455115,6.45898618 7.25193432,7.87465438 C6.91626239,8.69308756 6.56084505,9.51152074 6.2054277,10.2857143 C6.63982668,11.3253456 7.11371646,12.2986175 7.60735166,13.2276498 C8.25895012,14.4221198 8.87105776,15.4396313 9.46342,16.2580645 C10.0557822,17.0764977 10.5099266,17.4746544 10.8455985,17.4746544 C11.1812705,17.4746544 11.5169424,17.0322581 11.8723598,16.1695853 C12.2080317,15.3069124 12.5831944,14.2230415 12.9781026,12.9400922 C13.3730107,11.635023 13.7876643,10.2414747 14.2023179,8.73732719 C14.6169714,7.21105991 15.0513704,5.81751152 15.5055148,4.53456221 C15.9399138,3.2516129 16.4138036,2.16774194 16.9074388,1.30506912 C17.4010739,0.442396313 17.9144546,0 18.4475806,0 L18.4870714,0 C18.5463076,0 18.6055438,0 18.6647801,0.0221198157 C18.7240163,0.0442396313 18.7832525,0.0442396313 18.8424887,0.0442396313 C19.4151055,0.199078341 19.9284862,0.685714286 20.3826305,1.50414747 C20.8367749,2.32258065 21.2711739,3.29585253 21.666082,4.44608295 C22.0412448,5.59631336 22.4164075,6.81290323 22.7520795,8.14009217 C23.0877514,9.46728111 23.4234233,10.7502304 23.7590953,11.9668203 C24.2132397,13.4930876 24.6476386,14.7539171 25.0820376,15.8156682 C25.5164366,16.8552995 25.970581,17.4082949 26.4444707,17.4304147 L26.5431978,17.4304147 C26.9578513,17.4082949 27.0763238,17.0101382 27.3132687,16.3907834 C27.3132687,16.3686636 27.3132687,16.3686636 27.3132687,16.3686636 C27.8463947,14.9087558 28.103085,13.5815668 28.2807937,12.9843318 C28.6757018,11.6792627 29.0903554,10.2857143 29.505009,8.78156682 C29.9196625,7.25529954 30.3540615,5.86175115 30.8082059,4.57880184 C31.2426048,3.29585253 31.7164946,2.21198157 32.2101298,1.34930876 C32.703765,0.486635945 33.2171456,0.0442396313 33.7502716,0.0442396313 L33.7305262,0.0442396313 C33.7897625,0.0442396313 33.8489987,0.0442396313 33.9082349,0.066359447 C33.9674711,0.0884792627 34.0267073,0.0884792627 34.0859436,0.0884792627 C34.6585604,0.243317972 35.171941,0.729953917 35.6260854,1.5483871 C36.0802298,2.36682028 36.5146287,3.34009217 36.9095369,4.49032258 C37.2846996,5.640553 37.6598624,6.85714286 37.9955343,8.1843318 C38.3312063,9.51152074 38.6668782,10.79447 39.0025501,12.0110599 C39.4566945,13.5373272 39.8910935,14.7981567 40.3254925,15.8599078 C40.7598914,16.8995392 41.2140358,17.4525346 41.6879256,17.4746544 L41.7669072,17.4746544 C42.0630883,17.4082949 42.339524,17.0764977 42.6357052,16.5013825 C42.9318863,15.9262673 43.208322,15.2847926 43.4650123,14.5990783 C43.7809388,13.8248848 44.0573745,12.9400922 44.3140648,11.9668203 L44.7287184,10.3078341 C45.0446449,9.11336406 45.3605714,7.89677419 45.676498,6.68018433 C45.9924245,5.46359447 46.3478418,4.35760369 46.7032592,3.36221198 C47.0784219,2.36682028 47.4733301,1.57050691 47.9077291,0.951152074 C48.3223826,0.376036866 48.776527,0.066359447 49.2504168,0.0442396313 C49.3293984,0.0221198157 49.3886346,0.0221198157 49.4676163,0.0221198157 L49.5071071,0.0221198157 C49.5663433,0.0221198157 49.6255795,0.0221198157 49.6848158,0.0442396313 C49.744052,0.066359447 49.8032882,0.066359447 49.8625244,0.066359447 C50.4351413,0.221198157 50.9485219,0.707834101 51.4026662,1.52626728 C51.8568106,2.34470046 52.2912096,3.31797235 52.6861178,4.46820276 C53.0612805,5.61843318 53.4364433,6.83502304 53.7721152,8.16221198 C54.1077871,9.48940092 54.4434591,10.7723502 54.779131,11.9889401 C55.2332754,13.5152074 55.6676743,14.7760369 56.1020733,15.837788 C56.5364723,16.8774194 56.9906167,17.4304147 57.4645065,17.4525346 L57.5434881,17.4525346 C57.8396692,17.3861751 58.1161049,17.0543779 58.412286,16.4792627 C58.7084671,15.9041475 58.9849029,15.2626728 59.2415932,14.5769585 C59.5575197,13.802765 59.8339554,12.9179724 60.0906457,11.9447005 L60.5052993,10.2857143 Z M4.21910002,2.10138249 C4.08088217,2.91981567 4.14011839,3.93732719 4.39680869,5.17603687 C4.65349899,6.30414747 5.04840715,7.54285714 5.56178775,8.84792627 C5.77898724,8.36129032 5.97644132,7.87465438 6.1738954,7.38801843 C6.62803978,6.2156682 6.96371171,5.13179724 7.14142038,4.18064516 C7.31912905,3.20737327 7.31912905,2.43317972 7.10192956,1.81382488 C6.88473008,1.19447005 6.39109488,0.884792627 5.60127857,0.884792627 C4.83120766,0.884792627 4.35731787,1.28294931 4.21910002,2.10138249 Z"/>
</symbol><symbol id="logo-testd" viewBox="0 0 612 792">
<style type="text/css">
	.st0{clip-path:url(#accent_1_);fill:url(#background_2_);}
	.st1{clip-path:url(#main_1_);}
	.st2{fill:url(#background_3_);}
</style>
<g id="group_2">
	<g id="mask">
		
		<clipPath id="accent_1_">
			<use xlink:href="#accent" style="overflow:visible;"/>
		</clipPath>
		<linearGradient id="background_2_" gradientUnits="userSpaceOnUse" x1="164.5" y1="347.6362" x2="490.1592" y2="347.6362">
			<stop offset="0" style="stop-color:#EC6E66"/>
			<stop offset="1" style="stop-color:#F3A183"/>
		</linearGradient>
		<rect id="background" x="164.5" y="293" class="st0" width="325.7" height="109.2"/>
	</g>
</g>
<g id="group">
	<g>
		
		<clipPath id="main_1_">
			<use xlink:href="#main" style="overflow:visible;"/>
		</clipPath>
		<g id="mask_1_" class="st1">
			<linearGradient id="background_3_" gradientUnits="userSpaceOnUse" x1="164.5" y1="347.6362" x2="490.1592" y2="347.6362">
				<stop offset="0" style="stop-color:#EC6E66"/>
				<stop offset="1" style="stop-color:#F3A183"/>
			</linearGradient>
			<rect id="background_1_" x="164.5" y="293" class="st2" width="325.7" height="109.2"/>
		</g>
	</g>
</g>
</symbol><symbol id="logo" viewBox="0 0 325 109">
<style>
        .logo__main-path { fill: #E5E4E3; }
        .logo__accent-path { fill: #CC2954; }
    </style>
  
  
  <g id="logo-container" class="logo__container">
    <g id="logo-main" class="logo__main-group" transform="translate(15.000000, 0.000000)">
        <path id="logo-main-path" class="logo__main-path" d="M307.1,47 L305,54.5 C303.7,58.9 302.3,62.9 300.7,66.4 C299.4,69.5 298,72.4 296.5,75 C295,77.6 293.6,79.1 292.1,79.4 L291.7,79.4 C289.3,79.3 287,76.8 284.8,72.1 C282.6,67.3 280.4,61.6 278.1,54.7 C276.4,49.2 274.7,43.4 273,37.4 C271.3,31.4 269.4,25.9 267.5,20.7 C265.5,15.5 263.3,11.1 261,7.4 C258.7,3.7 256.1,1.5 253.2,0.8 C252.9,0.8 252.6,0.8 252.3,0.7 C252,0.6 251.7,0.6 251.4,0.6 L251.2,0.6 C250.8,0.6 250.5,0.6 250.1,0.7 C247.7,0.8 245.4,2.2 243.3,4.8 C241.1,7.6 239.1,11.2 237.2,15.7 C235.4,20.2 233.6,25.2 232,30.7 C230.4,36.2 228.8,41.7 227.2,47.1 L225.1,54.6 C223.8,59 222.4,63 220.8,66.5 C219.5,69.6 218.1,72.5 216.6,75.1 C215.1,77.7 213.7,79.2 212.2,79.5 L212,79.5 C209.6,79.4 207.3,76.9 205.1,72.2 C202.9,67.4 200.7,61.7 198.4,54.8 C196.7,49.3 195,43.5 193.3,37.5 C191.6,31.5 189.7,26 187.8,20.8 C185.8,15.6 183.6,11.2 181.3,7.5 C179,3.8 176.4,1.6 173.5,0.9 C173.2,0.9 172.9,0.9 172.6,0.8 C172.3,0.7 172,0.7 171.7,0.7 L171.5,0.7 C168.8,0.7 166.2,2.7 163.7,6.6 C161.2,10.5 158.8,15.4 156.6,21.2 C154.3,27 152.1,33.3 150,40.2 C147.9,47 145.8,53.3 143.8,59.2 C142.9,61.9 141.6,67.9 138.9,74.5 C138.9,74.5 138.9,74.5 138.9,74.6 C137.7,77.4 137.1,79.2 135,79.3 L134.6,79.3 C132.2,79.2 129.9,76.7 127.7,72 C125.5,67.2 123.3,61.5 121,54.6 C119.3,49.1 117.6,43.3 115.9,37.3 C114.2,31.3 112.3,25.8 110.4,20.6 C108.4,15.4 106.2,11 103.9,7.3 C101.6,3.6 99,1.4 96.1,0.7 C95.8,0.7 95.5,0.7 95.2,0.6 C94.9,0.5 94.6,0.5 94.3,0.5 L94.1,0.5 C91.4,0.5 88.8,2.5 86.3,6.4 C83.8,10.3 81.4,15.2 79.2,21 C76.9,26.8 74.7,33.1 72.6,40 C70.5,46.8 68.4,53.1 66.4,59 C64.4,64.8 62.5,69.7 60.8,73.6 C59,77.5 57.3,79.5 55.6,79.5 C53.9,79.5 51.6,77.7 48.6,74 C45.6,70.3 42.5,65.7 39.2,60.3 C36.7,56.1 34.3,51.7 32.1,47 C33.9,43.5 35.7,39.8 37.4,36.1 C40.3,29.7 42.2,23.9 43.2,18.6 C44.1,13.3 43.7,9 42,5.6 C40.3,2.2 36.4,0.5 30.3,0.5 C25.8,0.5 21.9,1.1 18.7,2.3 C15.5,3.5 12.8,5.1 10.5,7.1 C8.2,9.1 6.5,11.4 5.2,13.9 C3.9,16.5 2.9,19.1 2.2,21.8 C0.6,28.1 0.3,35.1 1.1,42.9 C2.7,55.3 5.1,66.3 8.3,75.9 C9.7,80 11.4,84 13.2,87.9 C15,91.8 17.2,95.3 19.8,98.4 C22.4,101.5 25.2,104 28.4,105.9 C31.6,107.7 35.2,108.7 39.2,108.7 C44.2,108.7 48.5,107.1 52.2,103.9 C55.9,100.7 59.1,96.7 61.8,91.9 C64.5,87.1 66.8,81.8 68.7,76.1 C70.6,70.4 72.2,65.2 73.6,60.3 C74.9,55.5 76.1,51.5 77.1,48.3 C78.1,45.1 79.1,43.5 80.1,43.5 C81,43.5 81.8,45.1 82.7,48.3 C83.6,51.5 84.5,55.5 85.6,60.3 C86.7,65.1 88,70.4 89.5,76.1 C91.1,81.8 93,87 95.4,91.9 C97.7,96.7 100.7,100.7 104.1,103.9 C107.6,107.1 111.7,108.7 116.6,108.7 L118.1,108.7 L118.3,108.7 L120.2,108.7 C124,108.7 127.5,107.1 130.7,104 C133.9,100.9 136.8,97 139.3,92.4 C140.5,90.3 141.5,88 142.4,85.6 C143.7,82.7 145,79.6 146.1,76.4 C148,70.7 149.6,65.5 151,60.6 C152.3,55.8 153.5,51.8 154.5,48.6 C155.5,45.4 156.5,43.8 157.5,43.8 C158.4,43.8 159.2,45.4 160.1,48.6 C161,51.8 161.9,55.8 163,60.6 C164.1,65.4 165.4,70.7 166.9,76.4 C168.5,82.1 170.4,87.3 172.8,92.2 C175.1,97 178.1,101 181.5,104.2 C185,107.4 189.1,109 194,109 L195.5,109 L195.7,109 L197.6,109 C201.4,109 204.9,107.4 208.1,104.3 C211.3,101.2 214.2,97.3 216.7,92.7 C219.3,88.1 221.6,83 223.7,77.6 C225.8,72.1 227.7,67.1 229.2,62.5 C230.8,57.9 232.1,54 233.4,50.9 C233.7,50.2 234,49.4 234.2,48.6 C234.2,48.6 234.2,48.6 234.2,48.6 C234.2,48.5 234.2,48.5 234.3,48.4 C234.4,48 234.5,47.7 234.7,47.3 C235.6,44.9 236.4,43.8 237.3,43.8 C238.2,43.8 239,45.4 239.9,48.6 C240.8,51.8 241.7,55.8 242.8,60.6 C243.9,65.4 245.2,70.7 246.7,76.4 C248.3,82.1 250.2,87.3 252.6,92.2 C254.9,97 257.9,101 261.3,104.2 C264.8,107.4 268.9,109 273.8,109 L275.3,109 L275.5,109 L277.4,109 C281.2,109 284.7,107.4 287.9,104.3 C291.1,101.2 294,97.3 296.5,92.7 C299.1,88.1 301.4,83 303.5,77.6 C305.6,72.1 307.5,67.1 309,62.5 C310.6,57.4 308.7,41.6 307.1,47 Z M22.6,10.6 C23.3,6.9 25.7,5.1 29.6,5.1 C33.6,5.1 36.1,6.5 37.2,9.3 C38.3,12.1 38.3,15.6 37.4,20 C36.5,24.3 34.8,29.2 32.5,34.5 C31.5,36.7 30.5,38.9 29.4,41.1 C26.8,35.2 24.8,29.6 23.5,24.5 C22.2,18.9 21.8,14.3 22.6,10.6 Z"/>
    </g>
    <g id="logo-accent" class="logo__accent-group" transform="translate(0.000000, 40.000000)">
        <path id="logo-accent-path" class="logo__accent-path" d="M44.4,0.9 L47.1,6.6 L20.8,41.6 C20.6,41.9 18.7,44.1 17.1,49.2 C15.7,53.7 15,60.8 13.2,62.8 C7.4,69.2 0.6,63.9 0.5,58.4 C0.5,56.6 1.3,52.6 3.5,49 C6.2,44.5 10.3,40.2 10.5,40.1 L16.6,33.6 L44.4,0.9 Z"/>
    </g>
  </g> 
</symbol><symbol id="menu" viewBox="0 0 20 18">
  <g id="menu">
    <g id="line-1">
      <path d="M7.23083731,2.96L7.23083731 0.96 19.8 0.96 19.8 2.96z"/>
    </g>
    <g id="line-2">
      <path d="M0.2,10L0.2 8 19.8 8 19.8 10z"/>
    </g>
    <g id="line-3">
      <path d="M3.71312668,17.04L3.71312668 15.04 19.8 15.04 19.8 17.04z"/>
    </g>
  </g>
</symbol><symbol id="search" viewBox="0 0 24 24"><circle cx="11" cy="11" r="8"/><line x1="21" y1="21" x2="16.65" y2="16.65"/></symbol></svg>